# This file uses centimeters as units for non-parametric coordinates.

mtllib Branch_6.mtl
g default
v -0.222521 10.513894 -2.329119
v -0.222521 11.886164 -2.329119
v 0.623490 10.513894 -2.181139
v -0.222521 10.513894 -2.329119
v -0.222521 11.886164 -2.329119
v 0.623490 11.886164 -2.181139
v 0.975896 10.857281 -2.993285
v 0.129885 10.857281 -3.141262
v 0.129885 11.745638 -3.141262
v 0.975896 11.745638 -2.993285
v 1.362959 10.501792 -4.090860
v 0.516948 10.501792 -4.238837
v 0.516948 11.221876 -4.238837
v 1.362959 11.221876 -4.090860
v 1.362959 10.501792 -4.090860
v 0.516948 10.501792 -4.238837
v 0.516948 11.221876 -4.238837
v 1.362959 11.221876 -4.090860
v 1.362959 10.431289 -5.068793
v 0.516948 10.429754 -5.216773
v 0.516948 11.088324 -5.216773
v 1.362959 11.088324 -5.068793
v 1.473703 10.538625 -5.997743
v 0.731393 10.581102 -6.116708
v 0.731393 11.036345 -6.242689
v 1.473703 11.036345 -6.112846
v 1.584447 10.641573 -7.156901
v 0.945839 10.641573 -7.268603
v 0.945839 10.984366 -7.268603
v 1.584447 10.984366 -7.156901
v 1.362959 11.167352 -4.490112
v 0.516948 11.167352 -4.638092
v 0.518078 10.419566 -4.665255
v 1.364089 10.420941 -4.517285
v 1.362959 11.155872 -4.574171
v 0.516948 11.155872 -4.722148
v 0.518078 10.400917 -4.749343
v 1.364089 10.401984 -4.601369
v 0.518348 10.412274 -4.668396
v 1.364359 10.411277 -4.520438
v 0.518348 10.399799 -4.752496
v 1.364359 10.398374 -4.604538
v 0.459845 10.284940 -4.755903
v 1.305856 10.274989 -4.608122
v 0.465601 10.312180 -4.821606
v 1.311612 10.301485 -4.673855
v 0.459845 10.284940 -4.755903
v 1.305856 10.274989 -4.608122
v 0.465601 10.312180 -4.821606
v 1.311612 10.301485 -4.673855
v 0.506091 10.172751 -4.945918
v 1.352102 10.156406 -4.798470
v 0.506091 10.177597 -5.029962
v 1.352102 10.161252 -4.882516
v 0.706295 10.528921 -6.011190
v 1.460742 10.488317 -5.889756
v 1.460742 11.042428 -5.990655
v 0.706295 11.042429 -6.122618
v 0.708797 10.408986 -6.053151
v 1.463243 10.358503 -5.932699
v 0.733895 10.468786 -6.156045
v 1.476204 10.417684 -6.038945
v 0.712271 10.262958 -6.126368
v 1.466717 10.183266 -6.021190
v 0.737369 10.346409 -6.213755
v 1.479678 10.267858 -6.110373
v 0.715795 10.127943 -6.254104
v 1.470241 10.048252 -6.148924
v 0.740893 10.211396 -6.341491
v 1.483202 10.132844 -6.238110
v 0.945839 10.812970 -7.268603
v 1.584447 10.812970 -7.156901
v 1.154215 10.889067 -7.491725
v 1.534878 10.890301 -7.420091
v 1.154527 10.991415 -7.495146
v 1.535190 10.992649 -7.423512
v 1.583578 10.984512 -7.161602
v 0.949519 10.984490 -7.272598
v 0.949513 10.814311 -7.272538
v 1.583573 10.814333 -7.161542
vt 0.410714 0.425282
vt 0.410714 0.462876
vt 0.375000 0.425282
vt 0.410714 0.425282
vt 0.410714 0.462876
vt 0.375000 0.462876
vt 0.375000 0.425282
vt 0.410714 0.425282
vt 0.410714 0.462876
vt 0.375000 0.462876
vt 0.375000 0.425282
vt 0.410714 0.425282
vt 0.410714 0.462876
vt 0.375000 0.462876
vt 0.375000 0.425282
vt 0.410714 0.425282
vt 0.410714 0.462876
vt 0.375000 0.462876
vt 0.375000 0.425282
vt 0.410714 0.425282
vt 0.410714 0.462876
vt 0.375000 0.462876
vt 0.375000 0.425282
vt 0.410714 0.425282
vt 0.410714 0.462876
vt 0.375000 0.462876
vt 0.375000 0.425282
vt 0.410714 0.425282
vt 0.410714 0.462876
vt 0.375000 0.462876
vt 0.375000 0.462876
vt 0.410714 0.462876
vt 0.410714 0.425282
vt 0.375000 0.425282
vt 0.375000 0.462876
vt 0.410714 0.462876
vt 0.410714 0.425282
vt 0.375000 0.425282
vt 0.375000 0.425282
vt 0.410714 0.425282
vt 0.410714 0.425282
vt 0.375000 0.425282
vt 0.375000 0.425282
vt 0.410714 0.425282
vt 0.410714 0.425282
vt 0.375000 0.425282
vt 0.375000 0.425282
vt 0.410714 0.425282
vt 0.410714 0.425282
vt 0.375000 0.425282
vt 0.375000 0.425282
vt 0.410714 0.425282
vt 0.410714 0.425282
vt 0.375000 0.425282
vt 0.410714 0.425282
vt 0.375000 0.425282
vt 0.375000 0.462876
vt 0.410714 0.462876
vt 0.375000 0.425282
vt 0.410714 0.425282
vt 0.410714 0.425282
vt 0.375000 0.425282
vt 0.375000 0.425282
vt 0.410714 0.425282
vt 0.410714 0.425282
vt 0.375000 0.425282
vt 0.375000 0.425282
vt 0.410714 0.425282
vt 0.410714 0.425282
vt 0.375000 0.425282
vt 0.375000 0.444079
vt 0.410714 0.444079
vt 0.375000 0.444079
vt 0.410714 0.444079
vt 0.410714 0.462876
vt 0.375000 0.462876
vt 0.375000 0.462876
vt 0.410714 0.462876
vt 0.410714 0.444079
vt 0.375000 0.444079
vn 0.000000 0.000000 0.000000
vn 0.000000 0.000000 0.000000
vn 0.000000 0.000000 0.000000
vn 0.000000 0.000000 0.000000
vn 0.063845 -0.928811 -0.365012
vn 0.063845 -0.928811 -0.365012
vn 0.001425 -0.999966 -0.008144
vn -0.003555 -0.999787 0.020328
vn -0.917359 0.000000 -0.398062
vn -0.917359 0.000000 -0.398062
vn -0.928314 0.000000 -0.371798
vn -0.930141 0.000000 -0.367202
vn 0.027763 0.986933 -0.158722
vn 0.027763 0.986933 -0.158722
vn 0.055007 0.947668 -0.314484
vn 0.053213 0.951113 -0.304226
vn 0.917359 -0.000000 0.398060
vn 0.917359 -0.000000 0.398060
vn 0.930142 -0.000000 0.367201
vn 0.928314 -0.000000 0.371797
vn -0.050971 -0.955238 0.291413
vn -0.050971 -0.955238 0.291413
vn -0.943076 0.000000 -0.332578
vn -0.943076 0.000000 -0.332578
vn 0.071524 0.909765 -0.408916
vn 0.071524 0.909765 -0.408916
vn 0.943076 -0.000000 0.332578
vn 0.943076 -0.000000 0.332578
vn 0.000000 0.000000 0.000000
vn 0.000000 0.000000 0.000000
vn 0.000000 0.000000 0.000000
vn 0.000000 0.000000 0.000000
vn 0.000000 0.000000 0.000000
vn 0.000000 0.000000 0.000000
vn 0.000000 0.000000 0.000000
vn 0.000000 0.000000 0.000000
vn 0.000000 0.000000 0.000000
vn 0.000000 0.000000 0.000000
vn 0.000000 0.000000 0.000000
vn 0.000000 0.000000 0.000000
vn 0.000000 0.000000 0.000000
vn 0.000000 0.000000 0.000000
vn 0.000000 0.000000 0.000000
vn 0.000000 0.000000 0.000000
vn -0.032021 -0.981717 0.187636
vn -0.032021 -0.981717 0.187636
vn -0.032021 -0.981717 0.187636
vn -0.032021 -0.981717 0.187636
vn -0.999999 -0.000747 -0.001245
vn -0.999999 -0.000747 -0.001245
vn -0.999999 -0.000859 -0.001023
vn -0.999999 -0.000948 -0.000916
vn 0.023661 0.990526 -0.135272
vn 0.023661 0.990526 -0.135272
vn 0.023661 0.990526 -0.135272
vn 0.023661 0.990526 -0.135272
vn 0.999999 0.000748 0.001246
vn 0.999999 0.000748 0.001246
vn 0.999999 0.000953 0.000915
vn 0.999999 0.000860 0.001024
vn 0.000755 -0.996588 -0.082533
vn -0.001168 -0.996303 -0.085904
vn -0.007860 -0.995192 -0.097625
vn -0.007860 -0.995192 -0.097625
vn -0.991932 -0.012393 -0.126166
vn -0.991916 -0.012404 -0.126287
vn -0.975359 -0.025075 -0.219196
vn -0.975672 -0.020882 -0.218237
vn 0.013332 0.997002 -0.076222
vn 0.014809 0.996299 -0.084665
vn 0.008539 0.998771 -0.048819
vn 0.008539 0.998771 -0.048819
vn 0.997849 0.005821 0.065303
vn 0.997805 0.005871 0.065967
vn 0.993682 0.009495 0.111826
vn 0.993627 0.011106 0.112168
vn 0.023661 0.990526 -0.135271
vn 0.023661 0.990526 -0.135270
vn -0.999999 -0.000949 0.001036
vn -0.999999 -0.001027 0.001098
vn -0.009254 -0.998299 -0.057556
vn -0.009254 -0.998299 -0.057556
vn -0.009254 -0.998299 -0.057556
vn -0.009254 -0.998299 -0.057556
vn 0.999999 0.001013 -0.001095
vn 0.999999 0.000951 -0.001037
vn 0.012396 -0.997993 -0.062100
vn 0.012396 -0.997993 -0.062099
vn -0.161437 -0.347983 0.923496
vn -0.161437 -0.347983 0.923497
vn -0.152780 -0.493231 0.856377
vn -0.153201 -0.487676 0.859478
vn -0.891657 0.452590 0.010479
vn -0.909621 0.415298 0.010853
vn 0.103350 0.800737 -0.590033
vn 0.103350 0.800737 -0.590033
vn 0.146899 0.553822 -0.819574
vn 0.148054 0.544526 -0.825573
vn 0.925383 -0.379005 -0.004691
vn 0.906108 -0.423025 -0.004205
vn -0.152316 -0.499236 0.852973
vn -0.152316 -0.499236 0.852973
vn -0.891147 0.453593 0.010468
vn -0.891147 0.453593 0.010468
vn 0.148903 0.537555 -0.829978
vn 0.148903 0.537555 -0.829978
vn 0.903614 -0.428328 -0.004145
vn 0.903614 -0.428328 -0.004145
vn 0.000000 0.000000 0.000000
vn 0.000000 0.000000 0.000000
vn 0.000000 0.000000 0.000000
vn 0.000000 0.000000 0.000000
vn 0.000000 0.000000 0.000000
vn 0.000000 0.000000 0.000000
vn 0.000000 0.000000 0.000000
vn 0.000000 0.000000 0.000000
vn 0.000000 0.000000 0.000000
vn 0.000000 0.000000 0.000000
vn 0.000000 0.000000 0.000000
vn 0.000000 0.000000 0.000000
vn 0.000000 0.000000 0.000000
vn 0.000000 0.000000 0.000000
vn 0.000000 0.000000 0.000000
vn 0.000000 0.000000 0.000000
vn -0.100304 -0.861270 0.498150
vn -0.100304 -0.861270 0.498150
vn -0.100304 -0.861270 0.498150
vn -0.100304 -0.861270 0.498150
vn -0.974330 -0.209524 -0.082348
vn -0.974330 -0.209524 -0.082348
vn -0.974330 -0.209524 -0.082348
vn -0.974330 -0.209524 -0.082348
vn 0.106348 0.839619 -0.532663
vn 0.106348 0.839619 -0.532663
vn 0.106348 0.839619 -0.532663
vn 0.106348 0.839619 -0.532663
vn 0.975786 0.203536 0.080090
vn 0.975786 0.203536 0.080090
vn 0.975786 0.203536 0.080090
vn 0.975786 0.203536 0.080090
vn 0.018959 -0.726290 -0.687127
vn 0.018959 -0.726290 -0.687127
vn 0.018959 -0.726290 -0.687127
vn 0.018959 -0.726290 -0.687127
vn -0.972129 -0.055804 -0.227710
vn -0.973723 -0.037982 -0.224545
vn -0.168767 -0.320277 0.932170
vn -0.168767 -0.320277 0.932170
vn -0.169803 -0.394549 0.903049
vn -0.169791 -0.392823 0.903804
vn -0.976750 0.064063 -0.204587
vn -0.976766 0.062945 -0.204854
vn -0.172350 -0.572348 0.801694
vn -0.172330 -0.568547 0.804398
vn -0.978484 0.104567 -0.177859
vn -0.978353 0.101272 -0.180468
vn 0.169115 0.381470 -0.908780
vn 0.169109 0.380533 -0.909174
vn 0.172364 0.571028 -0.802631
vn 0.172380 0.574308 -0.800285
vn 0.993645 -0.026275 0.109447
vn 0.993648 -0.025464 0.109617
vn 0.994072 -0.044543 0.099177
vn 0.994118 -0.046282 0.097916
vn -0.171235 -0.679457 0.713454
vn -0.171235 -0.679457 0.713454
vn -0.978916 0.126315 -0.160522
vn -0.978916 0.126315 -0.160522
vn 0.171262 0.679460 -0.713445
vn 0.171262 0.679460 -0.713445
vn 0.994308 -0.058373 0.089133
vn 0.994308 -0.058373 0.089133
vn 0.184937 -0.033390 -0.982183
vn 0.184937 -0.033390 -0.982183
vn 0.184937 -0.033390 -0.982183
vn 0.184937 -0.033390 -0.982183
vn -0.018460 -0.997153 -0.073109
vn -0.018460 -0.997153 -0.073109
vn -0.018460 -0.997153 -0.073109
vn -0.018460 -0.997153 -0.073109
vn -0.980675 -0.030507 -0.193250
vn -0.980675 -0.030507 -0.193250
vn -0.980675 -0.030507 -0.193250
vn -0.980467 -0.030454 -0.194311
vn -0.980584 -0.030484 -0.193716
vn 0.008540 0.998771 -0.048819
vn 0.008540 0.998771 -0.048819
vn 0.008501 0.998782 -0.048601
vn 0.008497 0.998783 -0.048576
vn 0.994859 0.013740 0.100331
vn 0.994859 0.013740 0.100331
vn 0.994859 0.013740 0.100331
vn 0.994881 0.013730 0.100120
vn 0.994908 0.013717 0.099847
vn 0.993156 0.016943 0.115563
vn 0.992913 0.023906 0.116412
vn 0.008540 0.998771 -0.048819
vn 0.008540 0.998771 -0.048819
vn 0.168456 0.324935 -0.930613
vn 0.168456 0.324935 -0.930613
vn 0.172299 -0.000000 -0.985045
vn 0.172299 -0.000000 -0.985045
vn 0.172299 -0.000000 -0.985045
vn 0.172299 -0.000000 -0.985045
vn 0.049996 -0.957035 -0.285630
vn 0.049996 -0.957035 -0.285630
vn 0.052363 -0.957134 -0.284871
vn 0.052366 -0.957135 -0.284870
vn -0.732454 -0.007676 -0.680773
vn -0.732460 -0.007621 -0.680768
vn -0.006410 0.999559 0.029003
vn -0.006408 0.999559 0.029004
vn 0.982939 -0.003392 -0.183899
vn 0.982938 -0.003418 -0.183903
vn -0.006455 0.999559 0.028991
vn -0.006455 0.999559 0.028991
vn -0.732439 -0.007842 -0.680788
vn -0.732439 -0.007842 -0.680788
vn 0.052451 -0.957138 -0.284843
vn 0.052451 -0.957138 -0.284843
vn 0.982936 -0.003492 -0.183914
vn 0.982936 -0.003492 -0.183914
s off
g Medium_Branch3
usemtl initialShadingGroup
f 1/1/1 2/2/2 5/5/3 4/4/4
s 1
f 3/3/5 4/4/6 8/8/7 7/7/8
s 2
f 4/4/9 5/5/10 9/9/11 8/8/12
s 3
f 5/5/13 6/6/14 10/10/15 9/9/16
s 4
f 6/6/17 3/3/18 7/7/19 10/10/20
s 1
f 7/7/8 8/8/7 12/12/21 11/11/22
s 2
f 8/8/12 9/9/11 13/13/23 12/12/24
s 3
f 9/9/16 10/10/15 14/14/25 13/13/26
s 4
f 10/10/20 7/7/19 11/11/27 14/14/28
s off
f 11/11/29 12/12/30 16/16/31 15/15/32
f 12/12/33 13/13/34 17/17/35 16/16/36
f 13/13/37 14/14/38 18/18/39 17/17/40
f 14/14/41 11/11/42 15/15/43 18/18/44
f 15/15/45 16/16/46 33/33/47 34/34/48
s 5
f 16/16/49 17/17/50 32/32/51 33/33/52
s 6
f 17/17/53 18/18/54 31/31/55 32/32/56
s 7
f 18/18/57 15/15/58 34/34/59 31/31/60
s 8
f 19/19/61 20/20/62 55/55/63 56/56/64
s 5
f 20/20/65 21/21/66 58/58/67 55/55/68
s 6
f 21/21/69 22/22/70 57/57/71 58/58/72
s 7
f 22/22/73 19/19/74 56/56/75 57/57/76
s 6
f 32/32/56 31/31/55 35/35/77 36/36/78
s 5
f 33/33/52 32/32/51 36/36/79 37/37/80
s off
f 52/51/81 51/52/82 53/53/83 54/54/84
s 7
f 31/31/60 34/34/59 38/38/85 35/35/86
s 6
f 36/36/78 35/35/77 22/22/70 21/21/69
s 5
f 37/37/80 36/36/79 21/21/66 20/20/65
s 8
f 38/38/87 37/37/88 20/20/62 19/19/61
s 7
f 35/35/86 38/38/85 19/19/74 22/22/73
s 12
f 34/34/89 33/33/90 39/40/91 40/39/92
s 5
f 33/33/52 37/37/80 41/41/93 39/40/94
s 13
f 37/37/95 38/38/96 42/42/97 41/41/98
s 7
f 38/38/85 34/34/59 40/39/99 42/42/100
s 12
f 40/39/92 39/40/91 43/44/101 44/43/102
s 5
f 39/40/94 41/41/93 45/45/103 43/44/104
s 13
f 41/41/98 42/42/97 46/46/105 45/45/106
s 7
f 42/42/100 40/39/99 44/43/107 46/46/108
s off
f 44/43/109 43/44/110 47/48/111 48/47/112
f 43/44/113 45/45/114 49/49/115 47/48/116
f 45/45/117 46/46/118 50/50/119 49/49/120
f 46/46/121 44/43/122 48/47/123 50/50/124
f 48/47/125 47/48/126 51/52/127 52/51/128
f 47/48/129 49/49/130 53/53/131 51/52/132
f 49/49/133 50/50/134 54/54/135 53/53/136
f 50/50/137 48/47/138 52/51/139 54/54/140
f 68/67/141 67/68/142 69/69/143 70/70/144
s 5
f 55/55/68 58/58/67 25/25/145 24/24/146
s 14
f 56/56/147 55/55/148 59/60/149 60/59/150
s 5
f 55/55/68 24/24/146 61/61/151 59/60/152
s 14
f 60/59/150 59/60/149 63/64/153 64/63/154
s 5
f 59/60/152 61/61/151 65/65/155 63/64/156
s 15
f 61/61/157 62/62/158 66/66/159 65/65/160
s 7
f 62/62/161 60/59/162 64/63/163 66/66/164
s 14
f 64/63/154 63/64/153 67/68/165 68/67/166
s 5
f 63/64/156 65/65/155 69/69/167 67/68/168
s 15
f 65/65/160 66/66/159 70/70/169 69/69/170
s 7
f 66/66/164 64/63/163 68/67/171 70/70/172
s off
f 74/73/173 73/74/174 75/75/175 76/76/176
f 27/27/177 23/23/178 24/24/179 28/28/180
s 17
f 28/28/181 24/24/182 25/25/183 29/29/184 71/72/185
s 18
f 25/25/186 26/26/187 30/30/188 29/29/189
s 19
f 26/26/190 23/23/191 27/27/192 72/71/193 30/30/194
s 7
f 57/57/76 56/56/75 23/23/195 26/26/196
s 6
f 58/58/72 57/57/71 26/26/197 25/25/198
s 15
f 24/24/199 23/23/200 62/62/158 61/61/157
s 7
f 23/23/195 56/56/75 60/59/162 62/62/161
s off
f 71/72/201 72/71/202 27/27/203 28/28/204
s 20
f 72/71/205 71/72/206 79/79/207 80/80/208
s 17
f 71/72/185 29/29/184 78/78/209 79/79/210
s 18
f 29/29/189 30/30/188 77/77/211 78/78/212
s 19
f 30/30/194 72/71/193 80/80/213 77/77/214
s 18
f 78/78/212 77/77/211 76/76/215 75/75/216
s 17
f 79/79/210 78/78/209 75/75/217 73/74/218
s 20
f 80/80/208 79/79/207 73/74/219 74/73/220
s 19
f 77/77/214 80/80/213 74/73/221 76/76/222
