# This file uses centimeters as units for non-parametric coordinates.

mtllib Branch_2.mtl
g default
v 1.005889 6.383072 3.658125
v 1.115069 6.385076 3.659214
v 1.055177 6.644783 3.806143
v 1.115069 6.644783 3.806143
v 1.173572 6.849423 3.199134
v 1.285817 6.849423 3.199134
v 1.173572 7.102884 2.168099
v 1.287064 7.102884 2.168099
v 1.173572 7.339529 1.127300
v 1.285817 7.339529 1.127300
v 1.173572 7.293463 0.043993
v 1.285817 7.293463 0.043993
v 1.173572 6.190375 0.043993
v 1.285817 6.190375 0.043993
v 1.173572 6.468538 1.127300
v 1.285817 6.468538 1.127300
v 1.173572 6.463386 1.820437
v 1.287064 6.463386 1.820437
v 1.181919 6.490948 2.842605
v 1.294046 6.491290 2.844408
v 1.287064 6.930039 2.958092
v 1.173572 6.930039 2.958092
v 1.173090 6.499896 2.642402
v 1.286596 6.500935 2.643190
v 0.183208 6.190375 0.043993
v 0.183208 6.468538 1.127300
v 0.183208 7.339529 1.127300
v 0.183208 7.293463 0.043993
v 0.183208 6.463386 1.820437
v 0.183208 7.102884 2.168099
v 0.183084 6.485382 2.665040
v 0.191999 6.473526 2.865250
v 0.183208 6.849513 3.199182
v 0.183208 6.930134 2.958143
v 0.353955 6.383072 3.658125
v 0.353955 6.644158 3.805803
v 1.277517 6.496525 2.646889
v 1.287259 6.493497 2.842827
v 0.194180 6.473459 2.866943
v 0.184333 6.480010 2.670980
v 1.275421 6.350536 2.843233
v 1.297397 6.338368 2.926233
v 0.207958 6.298932 2.959250
v 0.185951 6.312011 2.876977
v 1.306566 6.265996 2.943659
v 1.328534 6.266493 3.000565
v 0.240497 6.202392 3.065163
v 0.218468 6.203820 2.981874
v 1.055177 6.513928 3.732134
v 0.353955 6.513616 3.731964
v 0.900532 6.524122 3.882581
v 0.508600 6.523958 3.882492
v 0.899687 6.582610 3.923350
v 0.507755 6.582281 3.923172
v 0.360195 6.641647 3.810565
v 1.048869 6.642260 3.810898
v 1.048903 6.514341 3.738238
v 0.360229 6.514035 3.738072
vt 0.375000 0.000000
vt 0.625000 0.000000
vt 0.375000 0.250000
vt 0.625000 0.250000
vt 0.375000 0.312500
vt 0.625000 0.312500
vt 0.375000 0.375000
vt 0.625000 0.375000
vt 0.375000 0.437500
vt 0.625000 0.437500
vt 0.375000 0.500000
vt 0.625000 0.500000
vt 0.375000 0.750000
vt 0.625000 0.750000
vt 0.375000 0.812500
vt 0.625000 0.812500
vt 0.375000 0.875000
vt 0.625000 0.875000
vt 0.375000 0.937500
vt 0.625000 0.937500
vt 0.375000 1.000000
vt 0.625000 1.000000
vt 0.875000 0.000000
vt 0.812500 0.000000
vt 0.750000 0.000000
vt 0.687500 0.000000
vt 0.875000 0.250000
vt 0.812500 0.250000
vt 0.750000 0.250000
vt 0.687500 0.250000
vt 0.125000 0.000000
vt 0.187500 0.000000
vt 0.250000 0.000000
vt 0.312500 0.000000
vt 0.125000 0.250000
vt 0.187500 0.250000
vt 0.250000 0.250000
vt 0.312500 0.250000
vt 0.625000 0.326939
vt 0.701939 0.250000
vt 0.298061 0.250000
vt 0.375000 0.326939
vt 0.298061 0.000000
vt 0.375000 0.923061
vt 0.625000 0.923061
vt 0.701939 0.000000
vt 0.125000 0.000000
vt 0.187500 0.000000
vt 0.187500 0.250000
vt 0.125000 0.250000
vt 0.250000 0.000000
vt 0.250000 0.250000
vt 0.298061 0.000000
vt 0.312500 0.000000
vt 0.312500 0.250000
vt 0.298061 0.250000
vt 0.375000 0.000000
vt 0.375000 0.250000
vt 0.298061 0.000000
vt 0.312500 0.000000
vt 0.312500 0.000000
vt 0.298061 0.000000
vt 0.298061 0.000000
vt 0.312500 0.000000
vt 0.312500 0.000000
vt 0.298061 0.000000
vt 0.298061 0.000000
vt 0.312500 0.000000
vt 0.312500 0.000000
vt 0.298061 0.000000
vt 0.375000 0.125000
vt 0.375000 0.125000
vt 0.375000 0.125000
vt 0.375000 0.125000
vt 0.375000 0.250000
vt 0.375000 0.250000
vt 0.375000 0.250000
vt 0.375000 0.250000
vt 0.375000 0.125000
vt 0.375000 0.125000
vn -0.000176 0.947740 0.319044
vn 0.000000 0.947893 0.318590
vn 0.000001 0.971127 0.238564
vn 0.000058 0.971100 0.238673
vn 0.000020 0.975893 0.218250
vn 0.000001 0.975890 0.218263
vn 0.000001 0.995962 0.089780
vn 0.000000 0.995996 0.089401
vn 0.000001 0.999097 -0.042485
vn 0.000000 0.999097 -0.042485
vn 0.000000 0.000000 -1.000000
vn 0.000000 0.000000 -1.000000
vn 0.000000 0.000000 -1.000000
vn 0.000000 0.000000 -1.000000
vn -0.000000 -0.968580 0.248704
vn -0.000001 -0.968580 0.248704
vn -0.000001 -0.988458 0.151494
vn -0.000000 -0.988401 0.151866
vn 0.002403 -0.999774 0.021114
vn 0.004033 -0.999859 0.016326
vn 0.007375 -0.999388 0.034185
vn 0.004862 -0.999632 0.026682
vn 0.010994 -0.993850 -0.110184
vn 0.009265 -0.992668 -0.120518
vn 1.000000 0.000109 -0.000473
vn 1.000000 0.000000 0.000000
vn 1.000000 0.000000 0.000000
vn 1.000000 0.000109 -0.000475
vn 1.000000 0.000056 -0.000918
vn 1.000000 -0.000045 -0.000735
vn 0.988976 -0.085953 0.120579
vn 0.999998 0.001616 -0.000964
vn 0.999994 0.003099 -0.001775
vn 0.982360 -0.110304 0.151002
vn 0.966858 -0.153048 0.204357
vn 0.966858 -0.153048 0.204357
vn -1.000000 0.000000 -0.000000
vn -1.000000 0.000000 -0.000000
vn -1.000000 0.000000 -0.000000
vn -1.000000 0.000000 -0.000000
vn -1.000000 0.000046 -0.000019
vn -1.000000 0.000062 -0.000025
vn -0.999994 -0.002871 0.001864
vn -0.999988 -0.003996 0.002800
vn 0.000000 -0.988396 0.151900
vn 0.000000 -0.968580 0.248704
vn 0.000000 0.999097 -0.042485
vn -0.000000 0.995999 0.089363
vn 0.000000 0.000000 -1.000000
vn 0.000000 0.000000 -1.000000
vn 0.004219 -0.999866 0.015788
vn 0.000023 0.975893 0.218248
vn 0.056763 -0.998088 -0.024440
vn 0.056763 -0.998088 -0.024440
vn 0.056763 -0.998088 -0.024440
vn 0.056763 -0.998088 -0.024440
vn 0.007726 -0.999355 0.035086
vn 0.000065 0.971099 0.238679
vn 0.003242 0.999543 0.030066
vn 0.003242 0.999543 0.030066
vn 0.803723 0.590256 -0.075017
vn 0.449843 0.892762 -0.024859
vn -0.002483 -0.778499 -0.627641
vn -0.002483 -0.778499 -0.627641
vn 0.003566 -0.788326 -0.615248
vn 0.003390 -0.788043 -0.615610
vn 0.982084 -0.032573 -0.185605
vn 0.988898 -0.073640 -0.129064
vn 0.010254 0.471076 0.882033
vn 0.009833 0.485241 0.874325
vn 0.004803 0.578007 0.816017
vn 0.004277 0.587771 0.809016
vn -0.991839 0.051425 0.116669
vn -0.993453 0.021037 0.112288
vn -0.990223 0.047585 0.131126
vn -0.983482 0.009657 0.180748
vn 0.003578 -0.788345 -0.615223
vn 0.003578 -0.788345 -0.615223
vn 0.954044 0.049720 -0.295512
vn 0.954044 0.049720 -0.295512
vn -0.004069 0.729956 0.683482
vn -0.004069 0.729956 0.683482
vn -0.966356 -0.046604 0.252951
vn -0.966356 -0.046604 0.252951
vn 0.010963 -0.727370 -0.686158
vn 0.010963 -0.727370 -0.686158
vn 0.010963 -0.727370 -0.686158
vn 0.010963 -0.727370 -0.686158
vn 0.000265 -0.492380 0.870380
vn 0.000086 -0.492333 0.870407
vn 0.000039 -0.492321 0.870414
vn 0.000265 -0.492380 0.870380
vn 0.000265 -0.492380 0.870380
vn -0.000329 0.947410 0.320023
vn 0.000000 0.947599 0.319463
vn 0.009162 -0.992389 -0.122805
vn 0.012181 -0.991753 -0.127582
vn -0.985996 -0.109018 0.126199
vn -0.981222 -0.124231 0.147547
vn -0.967265 -0.161394 0.195835
vn -0.967265 -0.161394 0.195835
vn -0.967265 -0.161394 0.195835
vn -0.000192 0.947739 0.319047
vn 0.008844 -0.992454 -0.122301
vn 0.008844 -0.992454 -0.122301
vn 0.000079 -0.571964 0.820279
vn 0.000079 -0.571964 0.820279
vn 0.000079 -0.571964 0.820279
vn 0.000079 -0.571964 0.820279
vn -0.000355 0.947394 0.320069
vn -0.020660 0.991843 -0.125780
vn -0.020660 0.991843 -0.125780
vn 0.000004 -0.492311 0.870419
vn 0.000004 -0.492311 0.870419
vn 0.000427 -0.997690 0.067923
vn 0.000427 -0.997690 0.067923
vn 0.000419 -0.997681 0.068060
vn 0.000419 -0.997681 0.068060
vn 0.640289 -0.378696 0.668295
vn 0.640289 -0.378696 0.668295
vn 0.636839 -0.397273 0.660765
vn 0.636869 -0.397122 0.660827
vn -0.001014 0.883947 0.467586
vn -0.001014 0.883947 0.467586
vn -0.000995 0.883998 0.467489
vn -0.000995 0.883998 0.467489
vn -0.642331 -0.378012 0.666721
vn -0.642331 -0.378012 0.666721
vn -0.638028 -0.400760 0.657504
vn -0.637991 -0.400949 0.657425
vn -0.000991 0.884007 0.467473
vn -0.000991 0.884007 0.467473
vn 0.636559 -0.398714 0.660166
vn 0.636559 -0.398714 0.660166
vn 0.000418 -0.997680 0.068082
vn 0.000418 -0.997680 0.068082
vn -0.637636 -0.402723 0.656684
vn -0.637636 -0.402723 0.656684
s 1
g Shortest_Branch3
usemtl initialShadingGroup
f 5/5/1 6/6/2 21/39/3 22/42/4
f 7/7/5 8/8/6 10/10/7 9/9/8
f 9/9/8 10/10/7 12/12/9 11/11/10
s 2
f 11/11/11 12/12/12 14/14/13 13/13/14
s 3
f 13/13/15 14/14/16 16/16/17 15/15/18
f 15/15/18 16/16/17 18/18/19 17/17/20
f 23/44/21 24/45/22 20/20/23 19/19/24
s 4
f 16/24/25 14/23/26 12/27/27 10/28/28
f 18/25/29 16/24/25 10/28/28 8/29/30
f 20/26/31 24/46/32 21/40/33 6/30/34
f 2/2/35 20/26/31 6/30/34 4/4/36
s 5
f 25/47/37 26/48/38 27/49/39 28/50/40
f 26/48/38 29/51/41 30/52/42 27/49/39
s 1
f 22/42/4 21/39/3 8/8/6 7/7/5
s 5
f 29/51/41 31/53/43 34/56/44 30/52/42
s 3
f 17/17/20 18/18/19 24/45/22 23/44/21
s 4
f 21/40/33 24/46/32 18/25/29 8/29/30
s 3
f 13/31/15 15/32/18 26/48/45 25/47/46
s 1
f 9/36/8 11/35/10 28/50/47 27/49/48
s 2
f 11/35/11 13/31/14 25/47/49 28/50/50
s 3
f 15/32/18 17/33/20 29/51/51 26/48/45
s 1
f 7/37/5 9/36/8 27/49/48 30/52/52
s off
f 45/67/53 46/68/54 47/69/55 48/70/56
s 3
f 17/33/20 23/43/21 31/53/57 29/51/51
s 1
f 22/41/4 7/37/5 30/52/52 34/56/58
s 6
f 23/43/59 19/34/60 38/60/61 37/59/62
s 7
f 31/53/63 23/43/64 37/59/65 40/62/66
s 6
f 37/59/62 38/60/61 42/64/67 41/63/68
s 8
f 38/60/69 39/61/70 43/65/71 42/64/72
s 5
f 39/61/73 40/62/74 44/66/75 43/65/76
s 7
f 40/62/66 37/59/65 41/63/77 44/66/78
s 6
f 41/63/68 42/64/67 46/68/79 45/67/80
s 8
f 42/64/72 43/65/71 47/69/81 46/68/82
s 5
f 43/65/76 44/66/75 48/70/83 47/69/84
s off
f 44/66/85 41/63/86 45/67/87 48/70/88
s 10
f 3/3/89 49/71/90 1/1/91 2/2/92 4/4/93
s 1
f 5/5/1 3/3/94 4/4/95 6/6/2
s 3
f 1/21/96 19/19/24 20/20/23 2/22/97
s 5
f 34/56/44 31/53/43 32/54/98 33/55/99
f 33/55/99 32/54/98 35/57/100 50/72/101 36/58/102
s 1
f 33/55/103 5/38/1 22/41/4 34/56/58
s 3
f 32/54/104 19/34/24 1/1/96 35/57/105
s off
f 52/73/106 51/74/107 53/75/108 54/76/109
s 1
f 36/58/110 3/3/94 5/38/1 33/55/103
s 8
f 19/34/111 32/54/112 39/61/70 38/60/69
s 5
f 32/54/98 31/53/43 40/62/74 39/61/73
s 10
f 49/71/90 50/72/113 35/57/114 1/1/91
s 11
f 50/72/115 49/71/116 57/79/117 58/80/118
s 12
f 49/71/119 3/3/120 56/78/121 57/79/122
s 13
f 3/3/123 36/58/124 55/77/125 56/78/126
s 14
f 36/58/127 50/72/128 58/80/129 55/77/130
s 13
f 56/78/126 55/77/125 54/76/131 53/75/132
s 12
f 57/79/122 56/78/121 53/75/133 51/74/134
s 11
f 58/80/118 57/79/117 51/74/135 52/73/136
s 14
f 55/77/130 58/80/129 52/73/137 54/76/138
