# This file uses centimeters as units for non-parametric coordinates.

mtllib Trunk_1.mtl
g default
v 0.153090 0.122732 -1.412420
v -0.080011 0.122732 -1.465623
v -0.266943 0.122732 -1.316551
v -0.266943 0.122732 -1.077455
v -0.080011 0.122732 -0.928382
v 0.153090 0.122732 -0.981584
v 0.256830 0.122732 -1.197004
v 0.324880 0.122732 -1.627840
v -0.141322 0.122732 -1.734245
v -0.515187 0.122732 -1.436098
v -0.515187 0.122732 -0.957908
v -0.141322 0.122732 -0.659761
v 0.324880 0.122732 -0.766168
v 0.532360 0.122732 -1.197004
v 0.496670 0.122732 -1.843256
v -0.202633 0.122732 -2.002868
v -0.763430 0.122732 -1.555646
v -0.763431 0.122732 -0.838359
v -0.202633 0.122732 -0.391138
v 0.496670 0.122732 -0.550750
v 0.807890 0.122732 -1.197004
v 0.668460 0.122732 -2.058675
v -0.263944 0.122732 -2.271490
v -1.011674 0.122732 -1.675193
v -1.011674 0.122732 -0.718813
v -0.263944 0.122732 -0.122516
v 0.668460 0.122732 -0.335332
v 1.083419 0.122732 -1.197004
v 1.016181 0.122732 -2.513734
v -0.408638 0.122732 -2.838939
v -1.551253 0.122732 -1.927734
v -1.551253 0.122732 -0.466272
v -0.408638 0.122732 0.444933
v 1.016181 0.122732 0.119729
v 1.650285 0.122732 -1.197004
v 0.840250 0.761529 -2.274091
v -0.325255 0.761529 -2.540111
v -1.259918 0.761529 -1.794742
v -1.259918 0.761529 -0.599264
v -0.325255 0.761529 0.146105
v 0.840250 0.761529 -0.119915
v 1.358949 0.761529 -1.197004
v 0.623490 3.985837 -1.978834
v -0.222521 3.985837 -2.171930
v -0.900969 3.985837 -1.630888
v -0.900969 3.985837 -0.763120
v -0.222521 3.985837 -0.222074
v 0.623490 3.985837 -0.415170
v 1.000000 3.985837 -1.197004
v 0.623490 4.567327 -1.978834
v -0.222521 4.567327 -2.171930
v -0.900969 4.521248 -1.630888
v -0.900969 4.521248 -0.763120
v -0.222521 4.521248 -0.222074
v 0.623490 4.521248 -0.415170
v 1.000000 4.521248 -1.197004
v 0.623490 8.393991 -1.978834
v -0.222521 8.393991 -2.171930
v -0.900969 8.393991 -1.630888
v -0.900969 8.393991 -0.763120
v -0.222521 8.393991 -0.222074
v 0.623490 8.393991 -0.415170
v 1.000000 8.393991 -1.197004
v 0.623490 9.863375 -1.978834
v -0.222521 9.863375 -2.171930
v -0.900969 9.863375 -1.630888
v -0.900969 9.863375 -0.763120
v -0.222521 9.863375 -0.222074
v 0.623490 9.863375 -0.415170
v 1.000000 9.863375 -1.197004
v 0.623490 10.613899 -1.978834
v -0.222521 10.613899 -2.171930
v -0.900969 10.613899 -1.630888
v -0.900969 10.613899 -0.763120
v -0.222521 10.613899 -0.222074
v 0.623490 10.613899 -0.415170
v 1.000000 10.613899 -1.197004
v 0.623490 11.912167 -1.978834
v -0.222521 11.912167 -2.171930
v -0.900969 11.912167 -1.630888
v -0.900969 11.912167 -0.763120
v -0.222521 11.912167 -0.222074
v 0.623490 11.912167 -0.415170
v 1.000000 11.912167 -1.197004
v 0.493723 12.841483 -1.802074
v -0.161017 12.848489 -1.951513
v -0.686078 12.854029 -1.532793
v -0.686078 12.854029 -0.861215
v -0.161018 12.848489 -0.442491
v 0.493723 12.841483 -0.591932
v 0.785110 12.838332 -1.197004
v 0.415290 13.021439 -1.691613
v -0.121511 13.009607 -1.819902
v -0.559615 12.999885 -1.476378
v -0.559615 12.999885 -0.917628
v -0.121511 13.009607 -0.574104
v 0.415290 13.021439 -0.702390
v 0.650747 13.026561 -1.197004
v 0.298915 13.188344 -1.547722
v -0.080284 13.186913 -1.633279
v -0.383025 13.185730 -1.390776
v -0.383025 13.185730 -1.003231
v -0.080284 13.186913 -0.760724
v 0.298915 13.188344 -0.846287
v 0.468150 13.187564 -1.197005
v 0.114305 13.386177 -1.325649
v -0.024902 13.386177 -1.357421
v -0.136537 13.386177 -1.268396
v -0.136537 13.386177 -1.125610
v -0.024902 13.386177 -1.036584
v 0.114305 13.386177 -1.068357
v 0.176257 13.386177 -1.197004
v -0.018699 0.122732 -1.197004
v 0.003748 13.391033 -1.197004
v -0.233307 1.574656 -2.210586
v 0.646247 1.574656 -2.009834
v 1.037686 1.574656 -1.197004
v 0.646247 1.574656 -0.384172
v -0.233307 1.574656 -0.183420
v -0.938654 1.574656 -0.745916
v -0.938654 1.574656 -1.648090
vt 0.519484 0.131818
vt 0.493046 0.125784
vt 0.471845 0.142691
vt 0.471845 0.169809
vt 0.493046 0.186716
vt 0.519484 0.180682
vt 0.531250 0.156250
vt 0.538968 0.107386
vt 0.486092 0.095317
vt 0.443689 0.129132
vt 0.443689 0.183368
vt 0.486092 0.217183
vt 0.538968 0.205114
vt 0.562500 0.156250
vt 0.558452 0.082953
vt 0.479139 0.064851
vt 0.415534 0.115573
vt 0.415534 0.196927
vt 0.479139 0.247649
vt 0.558452 0.229547
vt 0.593750 0.156250
vt 0.577936 0.058521
vt 0.472185 0.034384
vt 0.387379 0.102015
vt 0.387379 0.210485
vt 0.472185 0.278116
vt 0.577936 0.253979
vt 0.625000 0.156250
vt 0.597420 0.034089
vt 0.465231 0.003918
vt 0.359224 0.088456
vt 0.359224 0.224044
vt 0.465231 0.308582
vt 0.597420 0.278411
vt 0.656250 0.156250
vt 0.375000 0.312500
vt 0.410714 0.312500
vt 0.446429 0.312500
vt 0.482143 0.312500
vt 0.517857 0.312500
vt 0.553571 0.312500
vt 0.589286 0.312500
vt 0.625000 0.312500
vt 0.375000 0.350094
vt 0.410714 0.350094
vt 0.446429 0.350094
vt 0.482143 0.350094
vt 0.517857 0.350094
vt 0.553571 0.350094
vt 0.589286 0.350094
vt 0.625000 0.350094
vt 0.375000 0.387688
vt 0.410714 0.387688
vt 0.446429 0.387688
vt 0.482143 0.387688
vt 0.517857 0.387688
vt 0.553571 0.387688
vt 0.589286 0.387688
vt 0.625000 0.387688
vt 0.375000 0.444079
vt 0.410714 0.444079
vt 0.446429 0.425282
vt 0.482143 0.425282
vt 0.517857 0.425282
vt 0.553571 0.425282
vt 0.589286 0.425282
vt 0.625000 0.444079
vt 0.375000 0.500470
vt 0.410714 0.500470
vt 0.446429 0.500470
vt 0.482143 0.500470
vt 0.517857 0.500470
vt 0.553571 0.500470
vt 0.589286 0.500470
vt 0.625000 0.500470
vt 0.375000 0.538064
vt 0.410714 0.538064
vt 0.446429 0.538064
vt 0.482143 0.538064
vt 0.517857 0.538064
vt 0.553571 0.538064
vt 0.589286 0.538064
vt 0.625000 0.538064
vt 0.375000 0.575658
vt 0.410714 0.575658
vt 0.446429 0.575658
vt 0.482143 0.575658
vt 0.517857 0.575658
vt 0.553571 0.575658
vt 0.589286 0.575658
vt 0.625000 0.575658
vt 0.375000 0.613252
vt 0.410714 0.613252
vt 0.446429 0.613252
vt 0.482143 0.613252
vt 0.517857 0.613252
vt 0.553571 0.613252
vt 0.589286 0.613252
vt 0.625000 0.613252
vt 0.375000 0.650846
vt 0.410714 0.650846
vt 0.446429 0.650846
vt 0.482143 0.650846
vt 0.517857 0.650846
vt 0.553571 0.650846
vt 0.589286 0.650846
vt 0.625000 0.650846
vt 0.375000 0.688440
vt 0.410714 0.688440
vt 0.446429 0.688440
vt 0.482143 0.688440
vt 0.517857 0.688440
vt 0.553571 0.688440
vt 0.589286 0.688440
vt 0.625000 0.688440
vt 0.597420 0.721589
vt 0.465231 0.691418
vt 0.359224 0.775956
vt 0.359224 0.911544
vt 0.465231 0.996082
vt 0.597420 0.965911
vt 0.656250 0.843750
vt 0.577936 0.746021
vt 0.472185 0.721884
vt 0.387379 0.789515
vt 0.387379 0.897985
vt 0.472185 0.965616
vt 0.577936 0.941479
vt 0.625000 0.843750
vt 0.538968 0.794886
vt 0.486092 0.782817
vt 0.443689 0.816632
vt 0.443689 0.870868
vt 0.486092 0.904683
vt 0.538968 0.892614
vt 0.562500 0.843750
vt 0.500000 0.150000
vt 0.500000 0.837500
vt 0.410714 0.368200
vt 0.625000 0.368200
vt 0.375000 0.368200
vt 0.589286 0.368200
vt 0.553571 0.368200
vt 0.517857 0.368200
vt 0.482143 0.368200
vt 0.446429 0.368200
vn 0.000000 -1.000000 0.000000
vn 0.000000 -1.000000 -0.000001
vn 0.000000 -1.000000 -0.000000
vn 0.000000 -1.000000 -0.000001
vn 0.000000 -1.000000 -0.000001
vn 0.000000 -1.000000 0.000001
vn 0.000000 -1.000000 0.000001
vn 0.000000 -1.000000 0.000000
vn 0.000000 -1.000000 0.000001
vn 0.000000 -1.000000 0.000000
vn 0.000000 -1.000000 -0.000001
vn 0.000000 -1.000000 -0.000001
vn 0.000000 -1.000000 -0.000001
vn 0.000000 -1.000000 -0.000000
vn 0.000000 -1.000000 -0.000000
vn 0.000000 -1.000000 0.000001
vn 0.000000 -1.000000 -0.000001
vn 0.000000 -1.000000 0.000000
vn 0.000000 -1.000000 0.000001
vn 0.000000 -1.000000 0.000000
vn 0.000000 -1.000000 0.000000
vn 0.000000 -1.000000 -0.000000
vn 0.000000 -1.000000 0.000000
vn 0.000000 -1.000000 -0.000000
vn 0.000000 -1.000000 -0.000001
vn 0.000000 -1.000000 -0.000001
vn 0.000000 -1.000000 0.000000
vn 0.000000 -1.000000 0.000000
vn 0.000000 -1.000000 -0.000000
vn 0.000000 -1.000000 0.000000
vn 0.000000 -1.000000 -0.000000
vn 0.000000 -1.000000 -0.000001
vn 0.000000 -1.000000 -0.000001
vn 0.000000 -1.000000 -0.000000
vn 0.000000 -1.000000 0.000000
vn 0.204643 0.392718 -0.896601
vn 0.204643 0.392718 -0.896601
vn 0.206465 0.372970 -0.904580
vn 0.206515 0.372413 -0.904798
vn -0.569185 0.408181 -0.713735
vn -0.569185 0.408181 -0.713735
vn -0.574682 0.387861 -0.720628
vn -0.574801 0.387405 -0.720778
vn -0.909843 0.414952 0.000000
vn -0.909843 0.414952 0.000000
vn -0.919031 0.394186 -0.000000
vn -0.919031 0.394186 -0.000000
vn -0.569184 0.408181 0.713735
vn -0.569184 0.408181 0.713735
vn -0.574801 0.387405 0.720778
vn -0.574682 0.387861 0.720628
vn 0.204643 0.392718 0.896601
vn 0.204643 0.392718 0.896601
vn 0.206514 0.372413 0.904798
vn 0.206465 0.372970 0.904580
vn 0.833358 0.380070 0.401324
vn 0.833358 0.380070 0.401324
vn 0.840431 0.360374 0.404730
vn 0.840346 0.360618 0.404689
vn 0.833358 0.380070 -0.401325
vn 0.833358 0.380070 -0.401325
vn 0.840346 0.360618 -0.404690
vn 0.840431 0.360374 -0.404730
vn 0.220809 0.123807 -0.967427
vn 0.220854 0.122175 -0.967624
vn -0.618254 0.129327 -0.775266
vn -0.618364 0.127966 -0.775404
vn -0.991361 0.131160 -0.000000
vn -0.991361 0.131160 -0.000000
vn -0.618364 0.127966 0.775403
vn -0.618254 0.129326 0.775265
vn 0.220854 0.122174 0.967624
vn 0.220809 0.123806 0.967427
vn 0.894664 0.118097 0.430847
vn 0.894589 0.118800 0.430811
vn 0.894588 0.118800 -0.430811
vn 0.894664 0.118097 -0.430848
vn 0.222505 0.011844 -0.974860
vn 0.222505 0.011846 -0.974860
vn 0.222521 0.000000 -0.974928
vn 0.222521 0.000000 -0.974928
vn -0.623441 0.012496 -0.781771
vn -0.623441 0.012498 -0.781771
vn -0.623488 0.000000 -0.781833
vn -0.623488 0.000000 -0.781833
vn -0.999918 0.012844 -0.000000
vn -0.999918 0.012844 -0.000000
vn -1.000000 0.000000 -0.000000
vn -1.000000 0.000000 -0.000000
vn -0.623441 0.012593 0.781769
vn -0.623441 0.012592 0.781769
vn -0.623491 0.000000 0.781830
vn -0.623491 0.000000 0.781830
vn 0.222505 0.012027 0.974858
vn 0.222505 0.012025 0.974858
vn 0.222521 0.000000 0.974928
vn 0.222521 0.000000 0.974928
vn 0.900909 0.011573 0.433854
vn 0.900909 0.011572 0.433854
vn 0.900969 0.000000 0.433883
vn 0.900969 0.000000 0.433883
vn 0.900909 0.011484 -0.433856
vn 0.900909 0.011485 -0.433856
vn 0.900969 0.000000 -0.433884
vn 0.900969 0.000000 -0.433884
vn 0.222521 0.000000 -0.974928
vn 0.222521 0.000000 -0.974928
vn 0.222521 0.000000 -0.974928
vn 0.222521 0.000000 -0.974928
vn -0.623488 0.000000 -0.781833
vn -0.623488 0.000000 -0.781833
vn -1.000000 0.000000 -0.000000
vn -1.000000 0.000000 -0.000000
vn -0.623491 0.000000 0.781830
vn -0.623491 0.000000 0.781830
vn 0.222521 0.000000 0.974928
vn 0.222521 0.000000 0.974928
vn 0.900969 0.000000 0.433883
vn 0.900969 0.000000 0.433883
vn 0.900969 0.000000 -0.433884
vn 0.900969 0.000000 -0.433884
vn 0.222521 0.000000 -0.974928
vn 0.222521 0.000000 -0.974928
vn -0.623488 0.000000 -0.781833
vn -0.623488 0.000000 -0.781833
vn -1.000000 0.000000 -0.000000
vn -1.000000 0.000000 -0.000000
vn -0.623491 0.000000 0.781830
vn -0.623491 0.000000 0.781830
vn 0.222521 0.000000 0.974928
vn 0.222521 0.000000 0.974928
vn 0.900969 0.000000 0.433883
vn 0.900969 0.000000 0.433883
vn 0.900969 0.000000 -0.433884
vn 0.900969 0.000000 -0.433884
vn 0.222521 0.000000 -0.974928
vn 0.222397 0.058689 -0.973188
vn 0.222392 0.059326 -0.973151
vn 0.222521 0.000000 -0.974928
vn -0.623488 0.000000 -0.781833
vn -0.622138 0.061423 -0.780494
vn -0.622117 0.061952 -0.780470
vn -0.623488 0.000000 -0.781833
vn -1.000000 0.000000 -0.000000
vn -0.998021 0.062878 -0.000000
vn -0.998021 0.062878 -0.000000
vn -1.000000 0.000000 -0.000000
vn -0.623491 0.000000 0.781830
vn -0.622119 0.061952 0.780468
vn -0.622141 0.061424 0.780492
vn -0.623491 0.000000 0.781830
vn 0.222521 0.000000 0.974928
vn 0.222392 0.059326 0.973151
vn 0.222398 0.058689 0.973188
vn 0.222521 0.000000 0.974928
vn 0.900969 0.000000 0.433883
vn 0.899556 0.056990 0.433073
vn 0.899569 0.056715 0.433080
vn 0.900969 0.000000 0.433883
vn 0.900969 0.000000 -0.433885
vn 0.899569 0.056715 -0.433081
vn 0.899555 0.056990 -0.433074
vn 0.900969 0.000000 -0.433885
vn 0.216099 0.256053 -0.942198
vn 0.215956 0.258522 -0.941557
vn -0.600239 0.266982 -0.753946
vn -0.599846 0.269245 -0.753453
vn -0.962032 0.272936 0.000000
vn -0.962032 0.272936 0.000000
vn -0.599849 0.269245 0.753451
vn -0.600242 0.266981 0.753944
vn 0.215957 0.258523 0.941556
vn 0.216100 0.256054 0.942198
vn 0.872776 0.249089 0.419783
vn 0.873003 0.248106 0.419893
vn 0.873002 0.248106 -0.419895
vn 0.872775 0.249089 -0.419784
vn 0.182216 0.582833 -0.791898
vn 0.182216 0.582833 -0.791898
vn -0.482509 0.632199 -0.606225
vn -0.482509 0.632199 -0.606225
vn -0.755548 0.655093 0.000000
vn -0.755548 0.655093 0.000000
vn -0.482510 0.632199 0.606225
vn -0.482510 0.632199 0.606225
vn 0.182216 0.582832 0.791899
vn 0.182216 0.582832 0.791899
vn 0.755463 0.545502 0.362910
vn 0.755463 0.545502 0.362910
vn 0.755461 0.545503 -0.362911
vn 0.755461 0.545503 -0.362911
vn 0.405533 0.742679 -0.532890
vn -0.169757 0.733128 -0.658564
vn -0.154177 0.761398 -0.629684
vn 0.390407 0.771592 -0.502223
vn -0.622475 0.726793 -0.290338
vn -0.593947 0.753820 -0.281038
vn -0.622476 0.726793 0.290338
vn -0.593948 0.753820 0.281036
vn -0.169757 0.733130 0.658562
vn -0.154176 0.761400 0.629683
vn 0.405529 0.742682 0.532888
vn 0.390410 0.771594 0.502218
vn 0.664572 0.747224 0.000001
vn 0.631068 0.775727 -0.000000
vn -0.127443 0.837579 -0.531243
vn 0.330346 0.845544 -0.419436
vn -0.502870 0.830637 -0.239089
vn -0.502871 0.830637 0.239088
vn -0.127441 0.837581 0.531241
vn 0.330349 0.845543 0.419435
vn 0.530047 0.847968 0.000000
vn 0.000000 -1.000000 -0.000000
vn -0.000767 1.000000 0.000000
s 1
g Center_of_Tree
usemtl initialShadingGroup
f 1/1/1 2/2/2 9/9/3 8/8/4
f 2/2/2 3/3/5 10/10/6 9/9/3
f 3/3/5 4/4/7 11/11/8 10/10/6
f 4/4/7 5/5/9 12/12/10 11/11/8
f 5/5/9 6/6/11 13/13/12 12/12/10
f 6/6/11 7/7/13 14/14/14 13/13/12
f 7/7/13 1/1/1 8/8/4 14/14/14
f 8/8/4 9/9/3 16/16/15 15/15/16
f 9/9/3 10/10/6 17/17/17 16/16/15
f 10/10/6 11/11/8 18/18/18 17/17/17
f 11/11/8 12/12/10 19/19/19 18/18/18
f 12/12/10 13/13/12 20/20/20 19/19/19
f 13/13/12 14/14/14 21/21/21 20/20/20
f 14/14/14 8/8/4 15/15/16 21/21/21
f 15/15/16 16/16/15 23/23/22 22/22/23
f 16/16/15 17/17/17 24/24/24 23/23/22
f 17/17/17 18/18/18 25/25/25 24/24/24
f 18/18/18 19/19/19 26/26/26 25/25/25
f 19/19/19 20/20/20 27/27/27 26/26/26
f 20/20/20 21/21/21 28/28/28 27/27/27
f 21/21/21 15/15/16 22/22/23 28/28/28
f 22/22/23 23/23/22 30/30/29 29/29/30
f 23/23/22 24/24/24 31/31/31 30/30/29
f 24/24/24 25/25/25 32/32/32 31/31/31
f 25/25/25 26/26/26 33/33/33 32/32/32
f 26/26/26 27/27/27 34/34/34 33/33/33
f 27/27/27 28/28/28 35/35/35 34/34/34
f 28/28/28 22/22/23 29/29/30 35/35/35
s 2
f 29/36/36 30/37/37 37/45/38 36/44/39
s 3
f 30/37/40 31/38/41 38/46/42 37/45/43
s 4
f 31/38/44 32/39/45 39/47/46 38/46/47
s 5
f 32/39/48 33/40/49 40/48/50 39/47/51
s 6
f 33/40/52 34/41/53 41/49/54 40/48/55
s 7
f 34/41/56 35/42/57 42/50/58 41/49/59
s 8
f 35/42/60 29/43/61 36/51/62 42/50/63
s 2
f 36/44/39 37/45/38 115/139/64 116/141/65
s 3
f 37/45/43 38/46/42 121/146/66 115/139/67
s 4
f 38/46/47 39/47/46 120/145/68 121/146/69
s 5
f 39/47/51 40/48/50 119/144/70 120/145/71
s 6
f 40/48/55 41/49/54 118/143/72 119/144/73
s 7
f 41/49/59 42/50/58 117/142/74 118/143/75
s 8
f 42/50/63 36/51/62 116/140/76 117/142/77
s 2
f 43/52/78 44/53/79 51/61/80 50/60/81
s 3
f 44/53/82 45/54/83 52/62/84 51/61/85
s 4
f 45/54/86 46/55/87 53/63/88 52/62/89
s 5
f 46/55/90 47/56/91 54/64/92 53/63/93
s 6
f 47/56/94 48/57/95 55/65/96 54/64/97
s 7
f 48/57/98 49/58/99 56/66/100 55/65/101
s 8
f 49/58/102 43/59/103 50/67/104 56/66/105
s 9
f 50/60/106 51/61/107 58/69/108 57/68/109
s 3
f 52/62/84 59/70/110 58/69/111 51/61/85
s 4
f 53/63/88 60/71/112 59/70/113 52/62/89
s 5
f 54/64/92 61/72/114 60/71/115 53/63/93
s 6
f 55/65/96 62/73/116 61/72/117 54/64/97
s 7
f 56/66/100 63/74/118 62/73/119 55/65/101
s 8
f 50/67/104 57/75/120 63/74/121 56/66/105
s 9
f 57/68/109 58/69/108 65/77/122 64/76/123
s 3
f 58/69/111 59/70/110 66/78/124 65/77/125
s 4
f 59/70/113 60/71/112 67/79/126 66/78/127
s 5
f 60/71/115 61/72/114 68/80/128 67/79/129
s 6
f 61/72/117 62/73/116 69/81/130 68/80/131
s 7
f 62/73/119 63/74/118 70/82/132 69/81/133
s 8
f 63/74/121 57/75/120 64/83/134 70/82/135
s 9
f 72/85/136 79/93/137 78/92/138 71/84/139 64/76/123 65/77/122
s 3
f 73/86/140 80/94/141 79/93/142 72/85/143 65/77/125 66/78/124
s 4
f 74/87/144 81/95/145 80/94/146 73/86/147 66/78/127 67/79/126
s 5
f 75/88/148 82/96/149 81/95/150 74/87/151 67/79/129 68/80/128
s 6
f 76/89/152 83/97/153 82/96/154 75/88/155 68/80/131 69/81/130
s 7
f 77/90/156 84/98/157 83/97/158 76/89/159 69/81/133 70/82/132
s 8
f 71/91/160 78/99/161 84/98/162 77/90/163 70/82/135 64/83/134
s 9
f 78/92/138 79/93/137 86/101/164 85/100/165
s 3
f 79/93/142 80/94/141 87/102/166 86/101/167
s 4
f 80/94/146 81/95/145 88/103/168 87/102/169
s 5
f 81/95/150 82/96/149 89/104/170 88/103/171
s 6
f 82/96/154 83/97/153 90/105/172 89/104/173
s 7
f 83/97/158 84/98/157 91/106/174 90/105/175
s 8
f 84/98/162 78/99/161 85/107/176 91/106/177
s 9
f 85/100/165 86/101/164 93/109/178 92/108/179
s 3
f 86/101/167 87/102/166 94/110/180 93/109/181
s 4
f 87/102/169 88/103/168 95/111/182 94/110/183
s 5
f 88/103/171 89/104/170 96/112/184 95/111/185
s 6
f 89/104/173 90/105/172 97/113/186 96/112/187
s 7
f 90/105/175 91/106/174 98/114/188 97/113/189
s 8
f 91/106/177 85/107/176 92/115/190 98/114/191
s 10
f 92/121/192 93/120/193 100/127/194 99/128/195
f 93/120/193 94/119/196 101/126/197 100/127/194
f 94/119/196 95/118/198 102/125/199 101/126/197
f 95/118/198 96/117/200 103/124/201 102/125/199
f 96/117/200 97/116/202 104/123/203 103/124/201
f 97/116/202 98/122/204 105/129/205 104/123/203
f 98/122/204 92/121/192 99/128/195 105/129/205
f 100/127/194 107/134/206 106/135/207 99/128/195
f 101/126/197 108/133/208 107/134/206 100/127/194
f 102/125/199 109/132/209 108/133/208 101/126/197
f 103/124/201 110/131/210 109/132/209 102/125/199
f 104/123/203 111/130/211 110/131/210 103/124/201
f 105/129/205 112/136/212 111/130/211 104/123/203
f 99/128/195 106/135/207 112/136/212 105/129/205
s 1
f 2/2/2 1/1/1 113/137/213
f 3/3/5 2/2/2 113/137/213
f 4/4/7 3/3/5 113/137/213
f 5/5/9 4/4/7 113/137/213
f 6/6/11 5/5/9 113/137/213
f 7/7/13 6/6/11 113/137/213
f 1/1/1 7/7/13 113/137/213
s 10
f 107/134/206 114/138/214 106/135/207
f 108/133/208 114/138/214 107/134/206
f 109/132/209 114/138/214 108/133/208
f 110/131/210 114/138/214 109/132/209
f 111/130/211 114/138/214 110/131/210
f 112/136/212 114/138/214 111/130/211
f 106/135/207 114/138/214 112/136/212
s 2
f 116/141/65 115/139/64 44/53/79 43/52/78
s 8
f 117/142/77 116/140/76 43/59/103 49/58/102
s 7
f 118/143/75 117/142/74 49/58/99 48/57/98
s 6
f 119/144/73 118/143/72 48/57/95 47/56/94
s 5
f 120/145/71 119/144/70 47/56/91 46/55/90
s 4
f 121/146/69 120/145/68 46/55/87 45/54/86
s 3
f 115/139/67 121/146/66 45/54/83 44/53/82
