# This file uses centimeters as units for non-parametric coordinates.

mtllib Platform_3_Loh.mtl
g default
v 58.832389 6.946234 -2.706868
v 58.871825 7.335607 -3.185198
v 58.877451 7.932666 -3.344746
v 58.847118 8.509354 -3.124570
v 58.792412 8.845395 -2.608771
v 58.734230 8.812435 -1.994365
v 58.694794 8.423061 -1.516035
v 58.689168 7.826003 -1.356487
v 58.719501 7.249315 -1.576663
v 58.774207 6.913274 -2.092462
v 75.662847 7.217433 -1.098524
v 75.702282 7.606806 -1.576854
v 75.707908 8.203865 -1.736402
v 75.677575 8.780553 -1.516226
v 75.622870 9.116594 -1.000426
v 75.564687 9.083634 -0.386020
v 75.525252 8.694260 0.092309
v 75.519626 8.097202 0.251857
v 75.549959 7.520514 0.031682
v 75.604664 7.184472 -0.484118
v 58.783310 7.879334 -2.350616
v 75.613767 8.150533 -0.742272
vt 0.626409 0.064409
vt 0.548284 0.007647
vt 0.451716 0.007647
vt 0.373591 0.064409
vt 0.343750 0.156250
vt 0.373591 0.248091
vt 0.451716 0.304853
vt 0.548284 0.304853
vt 0.626409 0.248091
vt 0.656250 0.156250
vt 0.375000 0.312500
vt 0.400000 0.312500
vt 0.425000 0.312500
vt 0.450000 0.312500
vt 0.475000 0.312500
vt 0.500000 0.312500
vt 0.525000 0.312500
vt 0.550000 0.312500
vt 0.575000 0.312500
vt 0.600000 0.312500
vt 0.625000 0.312500
vt 0.375000 0.688440
vt 0.400000 0.688440
vt 0.425000 0.688440
vt 0.450000 0.688440
vt 0.475000 0.688440
vt 0.500000 0.688440
vt 0.525000 0.688440
vt 0.550000 0.688440
vt 0.575000 0.688440
vt 0.600000 0.688440
vt 0.625000 0.688440
vt 0.626409 0.751909
vt 0.548284 0.695147
vt 0.451716 0.695147
vt 0.373591 0.751909
vt 0.343750 0.843750
vt 0.373591 0.935591
vt 0.451716 0.992353
vt 0.548284 0.992353
vt 0.626409 0.935591
vt 0.656250 0.843750
vt 0.500000 0.150000
vt 0.500000 0.837500
vn 0.072338 -0.776414 -0.626058
vn 0.072338 -0.776414 -0.626058
vn 0.072338 -0.776414 -0.626058
vn 0.072338 -0.776414 -0.626058
vn 0.096028 -0.257816 -0.961410
vn 0.096028 -0.257816 -0.961410
vn 0.096028 -0.257816 -0.961410
vn 0.096028 -0.257816 -0.961410
vn 0.083039 0.359259 -0.929536
vn 0.083039 0.359259 -0.929536
vn 0.083039 0.359259 -0.929536
vn 0.083039 0.359259 -0.929536
vn 0.038332 0.839109 -0.542611
vn 0.038332 0.839109 -0.542611
vn 0.038332 0.839109 -0.542611
vn 0.038332 0.839109 -0.542611
vn -0.021017 0.998448 0.051573
vn -0.021017 0.998448 0.051573
vn -0.021017 0.998448 0.051573
vn -0.021017 0.998448 0.051573
vn -0.072338 0.776414 0.626058
vn -0.072338 0.776414 0.626058
vn -0.072338 0.776414 0.626058
vn -0.072338 0.776414 0.626058
vn -0.096028 0.257816 0.961410
vn -0.096028 0.257816 0.961410
vn -0.096028 0.257816 0.961410
vn -0.096028 0.257816 0.961410
vn -0.083039 -0.359259 0.929536
vn -0.083039 -0.359259 0.929536
vn -0.083039 -0.359259 0.929536
vn -0.083039 -0.359259 0.929536
vn -0.038332 -0.839109 0.542611
vn -0.038332 -0.839109 0.542611
vn -0.038332 -0.839109 0.542611
vn -0.038332 -0.839109 0.542611
vn 0.021017 -0.998448 -0.051573
vn 0.021017 -0.998448 -0.051573
vn 0.021017 -0.998448 -0.051573
vn 0.021017 -0.998448 -0.051573
vn -0.995337 -0.016038 -0.095116
vn -0.995337 -0.016038 -0.095116
vn -0.995337 -0.016038 -0.095116
vn -0.995337 -0.016038 -0.095116
vn -0.995337 -0.016038 -0.095116
vn -0.995337 -0.016038 -0.095116
vn -0.995337 -0.016039 -0.095116
vn -0.995337 -0.016039 -0.095116
vn -0.995337 -0.016038 -0.095116
vn -0.995337 -0.016038 -0.095116
vn -0.995337 -0.016038 -0.095116
vn 0.995337 0.016038 0.095116
vn 0.995337 0.016039 0.095116
vn 0.995337 0.016038 0.095116
vn 0.995337 0.016038 0.095116
vn 0.995337 0.016038 0.095116
vn 0.995337 0.016038 0.095116
vn 0.995337 0.016038 0.095116
vn 0.995337 0.016038 0.095116
vn 0.995337 0.016038 0.095116
vn 0.995337 0.016038 0.095116
vn 0.995337 0.016038 0.095116
s off
g pCylinder1
usemtl initialShadingGroup
f 1/11/1 2/12/2 12/23/3 11/22/4
f 2/12/5 3/13/6 13/24/7 12/23/8
f 3/13/9 4/14/10 14/25/11 13/24/12
f 4/14/13 5/15/14 15/26/15 14/25/16
f 5/15/17 6/16/18 16/27/19 15/26/20
f 6/16/21 7/17/22 17/28/23 16/27/24
f 7/17/25 8/18/26 18/29/27 17/28/28
f 8/18/29 9/19/30 19/30/31 18/29/32
f 9/19/33 10/20/34 20/31/35 19/30/36
f 10/20/37 1/21/38 11/32/39 20/31/40
s 1
f 2/2/41 1/1/42 21/43/43
f 3/3/44 2/2/41 21/43/43
f 4/4/45 3/3/44 21/43/43
f 5/5/46 4/4/45 21/43/43
f 6/6/47 5/5/46 21/43/43
f 7/7/48 6/6/47 21/43/43
f 8/8/49 7/7/48 21/43/43
f 9/9/50 8/8/49 21/43/43
f 10/10/51 9/9/50 21/43/43
f 1/1/42 10/10/51 21/43/43
s 2
f 11/41/52 12/40/53 22/44/54
f 12/40/53 13/39/55 22/44/54
f 13/39/55 14/38/56 22/44/54
f 14/38/56 15/37/57 22/44/54
f 15/37/57 16/36/58 22/44/54
f 16/36/58 17/35/59 22/44/54
f 17/35/59 18/34/60 22/44/54
f 18/34/60 19/33/61 22/44/54
f 19/33/61 20/42/62 22/44/54
f 20/42/62 11/41/52 22/44/54
