# This file uses centimeters as units for non-parametric coordinates.

mtllib Tipi_Check.mtl
g default
v 1.756767 -42.267482 -7.374137
v 1.794190 -41.792415 -7.453756
v 1.749046 -41.792415 -7.461773
v 1.741385 -41.792415 -7.287516
v 9.945617 -10.437195 -24.796194
v -1.609199 -10.437195 11.579903
v 20.103752 -10.437195 -1.546242
v 8.142564 -18.289575 -20.960136
v 16.064041 -18.289575 -2.829451
v 15.512835 -18.289575 -13.384454
v 6.873583 -23.766022 -18.107218
v 12.704946 -23.766022 -12.113333
v 13.141062 -23.766022 -3.762208
v 19.396912 -10.437195 -15.081489
v 8.822234 -16.092110 -22.320827
v 18.483795 -12.655683 -14.682529
v 19.154049 -12.655683 -1.847914
v -0.868067 -18.289575 7.406527
v 9.522961 -18.289575 5.472687
v 7.965755 -23.766022 2.806448
v -0.255633 -23.766022 4.336504
v 11.715774 -10.437195 9.100036
v 11.200261 -12.655683 8.247274
v -1.434965 -12.655683 10.598775
v 1.840613 -41.792415 -7.347503
v 5.870283 -23.492373 -16.125782
v 10.973033 -23.492373 -4.446603
v 10.617965 -23.492373 -11.245781
v 8.531913 -15.517209 -21.344521
v 16.669291 -13.813670 -13.889734
v 17.266836 -13.813670 -2.447384
v 1.837383 -41.792415 -7.409359
v 3.060966 -34.482292 -10.148865
v 4.566229 -34.482292 -8.601650
v 4.678804 -34.482292 -6.445956
v 0.065937 -23.492373 2.147071
v 6.759488 -23.492373 0.901356
v 10.175855 -13.813670 6.552704
v -1.088734 -13.813670 8.649120
v 1.802280 -41.792415 -7.298850
v 3.342891 -34.482292 -4.750374
v 1.220686 -34.482292 -4.355417
v 0.067265 -10.437195 -26.550447
v -17.475010 -10.437195 -8.219693
v -13.240481 -18.289575 -8.033515
v -9.957889 -18.289575 2.013166
v -7.447506 -23.766022 0.069274
v -10.044696 -23.766022 -7.879666
v -13.265566 -10.437195 4.663706
v -12.487957 -12.655683 4.040586
v -16.479506 -12.655683 -8.175924
v 0.439266 -18.289575 -22.328131
v -9.088755 -18.289575 -17.753344
v -6.759847 -23.766022 -15.570002
v 0.778729 -23.766022 -19.189577
v -12.151029 -10.437195 -20.683952
v -11.431112 -12.655683 -19.994989
v 0.344294 -16.028104 -23.466700
v 1.668877 -41.792415 -7.378001
v -7.903957 -23.492373 -7.798886
v -5.789422 -23.492373 -1.327151
v -10.942727 -13.813670 2.802346
v -14.501283 -13.813670 -8.088948
v 1.688115 -41.792415 -7.319123
v -0.635768 -34.482292 -5.456927
v -1.306186 -34.482292 -7.508804
v 0.908077 -23.492373 -17.006998
v -5.229554 -23.492373 -14.060074
v -10.000525 -13.813670 -18.625912
v 0.181008 -15.517209 -22.827522
v 1.693208 -41.792415 -7.434963
v -0.458261 -34.482292 -9.493928
v 1.487688 -34.482292 -10.428256
v 8.575599 -16.889516 -21.827066
v 0.378757 -16.848736 -23.053543
v 3.899416 -23.766022 -18.635387
v 4.383508 -18.289575 -21.627689
v 4.599063 -17.580448 -22.333242
v 4.623897 -17.437592 -22.444487
v 4.498437 -17.406088 -21.878862
v 3.434326 -23.492373 -16.558372
v 2.288641 -34.482292 -10.286018
v 1.772029 -41.792415 -7.457691
v 0.772826 -23.766022 -19.186743
v 0.778376 -23.760325 -19.192842
vt 0.000000 0.000000
vt 1.000000 0.000000
vt 1.000000 1.000000
vt 1.000000 0.500000
vt 0.332390 0.000000
vt 0.332390 0.500000
vt 0.332390 0.250000
vt 0.166195 0.000000
vt 0.166195 0.250000
vt 0.166195 0.125000
vt 0.083098 0.000000
vt 0.083098 0.125000
vt 0.083098 0.250000
vt 0.332390 0.125000
vt 0.249293 0.000000
vt 0.249293 0.125000
vt 0.249293 0.250000
vt 0.166195 0.500000
vt 0.166195 0.375000
vt 0.083098 0.375000
vt 0.083098 0.500000
vt 0.332390 0.375000
vt 0.249293 0.375000
vt 0.249293 0.500000
vt 1.000000 0.250000
vt 0.666195 0.000000
vt 0.666195 0.250000
vt 0.666195 0.125000
vt 0.499293 0.000000
vt 0.499293 0.125000
vt 0.499293 0.250000
vt 1.000000 0.125000
vt 0.833098 0.000000
vt 0.833098 0.125000
vt 0.833098 0.250000
vt 0.666195 0.500000
vt 0.666195 0.375000
vt 0.499293 0.375000
vt 0.499293 0.500000
vt 1.000000 0.375000
vt 0.833098 0.375000
vt 0.833098 0.500000
vt 0.332390 1.000000
vt 0.332390 0.750000
vt 0.166195 0.750000
vt 0.166195 0.625000
vt 0.083098 0.625000
vt 0.083098 0.750000
vt 0.332390 0.625000
vt 0.249293 0.625000
vt 0.249293 0.750000
vt 0.166195 1.000000
vt 0.166195 0.875000
vt 0.083098 0.875000
vt 0.083098 1.000000
vt 0.332390 0.875000
vt 0.249293 0.875000
vt 0.249293 1.000000
vt 1.000000 0.750000
vt 0.666195 0.750000
vt 0.666195 0.625000
vt 0.499293 0.625000
vt 0.499293 0.750000
vt 1.000000 0.625000
vt 0.833098 0.625000
vt 0.833098 0.750000
vt 0.666195 1.000000
vt 0.666195 0.875000
vt 0.499293 0.875000
vt 0.499293 1.000000
vt 1.000000 0.875000
vt 0.833098 0.875000
vt 0.833098 1.000000
vt 0.000000 0.125000
vt 0.000000 0.250000
vt 0.000000 0.375000
vt 0.000000 0.500000
vt 0.000000 0.625000
vt 0.000000 0.750000
vt 0.000000 0.875000
vt 0.000000 0.000000
vt 1.000000 0.000000
vt 1.000000 1.000000
vt 0.000000 1.000000
vt 0.000000 0.000000
vt 1.000000 0.000000
vt 1.000000 1.000000
vt 0.000000 1.000000
vt 0.000000 0.500000
vt 1.000000 0.000000
vt 1.000000 1.000000
vt 0.000000 0.000000
vt 1.000000 0.000000
vt 1.000000 1.000000
vt 0.000000 1.000000
vt 0.000000 0.000000
vt 1.000000 0.000000
vt 1.000000 1.000000
vt 0.000000 1.000000
vt 0.000000 0.000000
vt 1.000000 0.000000
vt 1.000000 1.000000
vt 0.000000 1.000000
vt 0.219139 0.000000
vt 0.637125 1.000000
vt 0.219139 1.000000
vt 0.637125 0.000000
vt 1.000000 0.512020
vt 1.000000 0.512020
vt 0.000000 0.512020
vt 0.000000 0.512020
vt 0.637125 0.512020
vt 1.000000 0.512020
vt 0.000000 0.509098
vt 1.000000 0.509098
vt 0.000000 0.509098
vt 1.000000 0.509098
vt 0.000000 0.509098
vt 1.000000 0.509098
vt 0.000000 0.000000
vt 1.000000 0.000000
vt 1.000000 1.000000
vt 0.000000 1.000000
vt 0.000000 0.000000
vt 1.000000 0.000000
vt 1.000000 1.000000
vt 0.000000 1.000000
vt 0.083098 0.999902
vt 0.083184 1.000000
vn -0.834971 -0.362386 -0.414126
vn -0.686208 -0.483539 -0.543424
vn -0.098730 -0.377215 -0.920848
vn 0.698209 -0.362387 0.617398
vn 0.520891 -0.483540 0.703464
vn 0.118285 -0.362389 0.924491
vn 0.276853 -0.890599 0.360813
vn -0.837626 0.466031 -0.284952
vn -0.442231 0.466033 -0.766319
vn 0.329171 -0.934914 -0.132601
vn -0.649807 0.443946 0.616978
vn -0.827230 0.464570 0.316014
vn -0.805901 0.495576 0.323925
vn -0.783932 0.525653 0.330364
vn -0.819565 0.495020 -0.288563
vn -0.654534 -0.083251 0.751435
vn -0.432502 0.525873 -0.732394
vn 0.179411 0.497751 -0.848561
vn -0.425151 0.495895 -0.757189
vn -0.807787 0.525534 -0.267011
vn 0.446011 -0.890598 0.088938
vn 0.172391 0.466035 -0.867809
vn 0.703821 -0.362388 -0.610992
vn 0.765831 -0.483539 -0.423901
vn 0.932018 -0.362386 0.004258
vn 0.756258 -0.548201 -0.357140
vn 0.726884 -0.603246 -0.328227
vn 0.810784 -0.545750 0.211629
vn 0.618639 -0.551851 -0.559237
vn 0.604919 -0.536397 -0.588517
vn 0.767252 -0.604427 0.214457
vn 0.639728 -0.450985 -0.622383
vn 0.669731 -0.356272 -0.651560
vn 0.855368 -0.483538 0.185841
vn 0.435757 -0.604429 0.666919
vn -0.103229 -0.545755 0.831562
vn 0.470363 -0.545752 0.693479
vn -0.111754 -0.604432 0.788779
vn -0.071804 -0.483543 0.872371
vn -0.405299 -0.860390 -0.308969
vn 0.882941 0.466031 0.056838
vn 0.627796 0.465536 0.623818
vn -0.321299 -0.890599 0.321871
vn 0.701554 0.466033 -0.539106
vn 0.668479 0.527113 -0.524678
vn 0.863207 0.500662 0.064904
vn 0.693061 0.499649 -0.519633
vn 0.156753 0.526503 -0.835598
vn -0.029544 -0.890600 0.453826
vn 0.848317 0.527405 0.046928
vn 0.614316 0.500106 0.610336
vn -0.453778 -0.890598 0.030357
vn 0.373675 0.458113 0.806536
vn -0.520288 -0.362388 0.773289
vn -0.628908 -0.483540 0.608822
vn -0.900929 -0.362386 0.238755
vn -0.603867 -0.604429 0.519624
vn -0.837919 -0.545750 0.006957
vn -0.625650 -0.545752 0.557420
vn -0.796629 -0.604427 -0.007116
vn -0.874243 -0.483538 0.043471
vn -0.616004 -0.607677 -0.501266
vn -0.300587 -0.538871 -0.786934
vn -0.634824 -0.545751 -0.546950
vn -0.377886 -0.564577 -0.733795
vn -0.167764 -0.493247 -0.853559
vn 0.058214 -0.907114 0.416840
vn 0.152964 -0.484433 -0.861352
vn 0.152614 -0.488029 -0.859381
vn 0.162716 -0.366011 -0.916275
vn 0.162717 -0.366011 -0.916275
vn 0.151239 -0.501830 -0.851642
vn 0.151239 -0.501830 -0.851642
vn 0.138135 -0.628827 -0.765177
vn 0.290294 -0.621985 -0.727231
vn 0.290294 -0.621985 -0.727231
vn 0.134026 -0.628797 -0.765931
vn -0.011298 -0.620806 -0.783882
vn -0.011298 -0.620806 -0.783882
vn -0.400439 -0.867658 0.294648
vn -0.400439 -0.867658 0.294648
vn -0.400439 -0.867658 0.294648
vn -0.400439 -0.867658 0.294648
vn 0.302973 -0.856226 0.418431
vn 0.302973 -0.856226 0.418431
vn 0.302973 -0.856226 0.418431
vn 0.302973 -0.856226 0.418431
vn -0.980621 -0.129618 -0.146907
vn -0.980621 -0.129618 -0.146907
vn -0.980621 -0.129618 -0.146907
vn 0.948521 -0.051649 0.312474
vn 0.948521 -0.051649 0.312474
vn 0.948521 -0.051649 0.312474
vn -0.631780 0.539847 0.556255
vn -0.633185 0.493555 0.596222
vn 0.606350 0.527228 0.595290
vn -0.184263 0.602091 0.776874
vn -0.203450 0.570657 0.795587
vn -0.134114 0.527346 0.839000
vn -0.133464 0.572923 0.808670
vn -0.081221 0.527328 0.845771
vn -0.059697 0.476739 0.877016
vn -0.620762 0.499922 0.603931
vn 0.024612 0.992656 -0.118443
vn 0.384947 0.457199 0.801739
vn 0.226695 0.532701 0.815377
vn 0.373200 0.506528 0.777272
vn 0.380182 0.477560 0.792084
vn 0.391418 0.426869 0.815215
vn -0.148635 0.526658 0.836982
vn 0.152984 -0.484224 -0.861466
vn 0.152984 -0.484224 -0.861466
vn 0.152984 -0.484224 -0.861466
vn 0.152984 -0.484224 -0.861466
vn -0.171473 0.622205 0.763844
vn -0.129505 0.587432 0.798844
vn -0.093820 0.556307 0.825663
vn -0.148637 0.526658 0.836982
vn -0.148637 0.526658 0.836982
vn -0.148637 0.526658 0.836982
vn 0.380301 0.477504 0.792061
vn 0.152984 -0.484224 -0.861466
vn 0.152984 -0.484224 -0.861466
s 1
g nurbsToPoly2
usemtl lambert2SG
f 71/71/1 72/72/2 3/3/3
f 40/40/4 41/41/5 4/4/6
f 22/22/7 17/17/8 23/23/9
f 14/14/10 15/15/11 16/16/12
f 10/10/13 12/12/14 9/9/15
f 15/15/11 14/14/10 5/5/16
f 10/10/13 17/17/8 16/16/12
f 20/20/17 18/18/18 19/19/19
f 13/13/20 19/19/19 9/9/15
f 7/7/21 16/16/12 17/17/8
f 9/9/15 23/23/9 17/17/8
f 19/19/19 24/24/22 23/23/9
f 32/32/23 34/34/24 25/25/25
f 28/28/26 30/30/27 27/27/28
f 29/29/29 28/28/26 26/26/30
f 5/5/16 30/30/27 29/29/29
f 14/14/10 31/31/31 30/30/27
f 33/33/32 32/32/23 2/2/33
f 26/26/30 34/34/24 33/33/32
f 28/28/26 35/35/34 34/34/24
f 38/38/35 36/36/36 37/37/37
f 31/31/31 37/37/37 27/27/28
f 7/7/21 38/38/35 31/31/31
f 22/22/7 39/39/38 38/38/35
f 25/25/25 35/35/34 40/40/4
f 27/27/28 41/41/5 35/35/34
f 37/37/37 42/42/39 41/41/5
f 56/56/40 51/51/41 57/57/42
f 49/49/43 24/24/22 50/50/44
f 47/47/45 45/45/46 46/46/47
f 21/21/48 46/46/47 18/18/18
f 6/6/49 23/23/9 24/24/22
f 18/18/18 50/50/44 24/24/22
f 46/46/47 51/51/41 50/50/44
f 48/48/50 53/53/51 45/45/46
f 44/44/52 50/50/44 51/51/41
f 45/45/46 57/57/42 51/51/41
f 53/53/51 58/58/53 57/57/42
f 64/64/54 65/65/55 59/59/56
f 62/62/57 60/60/58 61/61/59
f 39/39/38 61/61/59 36/36/36
f 6/6/49 62/62/57 39/39/38
f 49/49/43 63/63/60 62/62/57
f 4/4/6 42/42/39 64/64/54
f 36/36/36 65/65/55 42/42/39
f 61/61/59 66/66/61 65/65/55
f 69/69/62 67/67/63 68/68/64
f 63/63/60 68/68/64 60/60/58
f 44/44/52 69/69/62 63/63/60
f 56/56/40 70/70/65 69/69/62
f 59/59/56 66/66/61 71/71/1
f 60/60/58 72/72/2 66/66/61
f 68/68/64 73/73/66 72/72/2
f 3/3/3 72/72/2 73/73/66
f 4/4/6 41/41/5 42/42/39
f 24/24/22 49/49/43 6/6/49
f 17/17/8 22/22/7 7/7/21
f 9/9/15 12/12/14 13/13/20
f 16/16/12 7/7/21 14/14/10
f 17/17/8 10/10/13 9/9/15
f 18/18/18 20/20/17 21/21/48
f 19/19/19 13/13/20 20/20/17
f 23/23/9 6/6/49 22/22/7
f 23/23/9 9/9/15 19/19/19
f 24/24/22 19/19/19 18/18/18
f 25/25/25 34/34/24 35/35/34
f 27/27/28 30/30/27 31/31/31
f 28/28/26 29/29/29 30/30/27
f 30/30/27 5/5/16 14/14/10
f 31/31/31 14/14/10 7/7/21
f 32/32/23 33/33/32 34/34/24
f 34/34/24 26/26/30 28/28/26
f 35/35/34 28/28/26 27/27/28
f 36/36/36 38/38/35 39/39/38
f 37/37/37 31/31/31 38/38/35
f 38/38/35 7/7/21 22/22/7
f 39/39/38 22/22/7 6/6/49
f 40/40/4 35/35/34 41/41/5
f 41/41/5 27/27/28 37/37/37
f 42/42/39 37/37/37 36/36/36
f 43/43/67 57/57/42 58/58/53
f 51/51/41 56/56/40 44/44/52
f 45/45/46 47/47/45 48/48/50
f 46/46/47 21/21/48 47/47/45
f 50/50/44 44/44/52 49/49/43
f 50/50/44 18/18/18 46/46/47
f 51/51/41 46/46/47 45/45/46
f 57/57/42 43/43/67 56/56/40
f 57/57/42 45/45/46 53/53/51
f 59/59/56 65/65/55 66/66/61
f 60/60/58 62/62/57 63/63/60
f 61/61/59 39/39/38 62/62/57
f 62/62/57 6/6/49 49/49/43
f 63/63/60 49/49/43 44/44/52
f 64/64/54 42/42/39 65/65/55
f 65/65/55 36/36/36 61/61/59
f 66/66/61 61/61/59 60/60/58
f 67/67/63 69/69/62 70/70/65
f 68/68/64 63/63/60 69/69/62
f 69/69/62 44/44/52 56/56/40
f 70/70/65 56/56/40 43/43/67
f 71/71/1 66/66/61 72/72/2
f 72/72/2 60/60/58 68/68/64
f 73/73/66 68/68/64 67/67/63
f 82/118/68 33/84/69 2/83/70 83/119/71
f 81/116/72 26/88/73 33/87/69 82/117/68
s 26
f 80/114/74 29/95/75 26/94/76 81/115/77
f 70/92/78 80/114/74 81/115/77 67/93/79
s 1
f 67/85/63 81/116/72 82/117/68 73/86/66
f 73/81/66 82/118/68 83/119/71 3/82/3
s off
f 79/120/80 80/123/81 70/122/82 58/121/83
f 15/124/84 29/127/85 80/126/86 79/125/87
f 58/58/88 70/122/89 43/43/90
f 5/5/91 29/29/92 15/124/93
s 1
f 74/104/94 8/8/95 16/16/12 15/15/11
f 16/16/12 8/8/95 10/10/13
f 53/53/51 48/48/50 54/54/96
s 27
f 74/105/97 15/102/98 79/113/99 78/112/100
f 75/107/101 78/112/100 79/113/99 58/101/102
s 1
f 11/11/103 10/10/13 8/8/95
f 1/1/104 12/12/14 11/11/103
f 13/13/20 12/12/14 1/74/104
f 1/75/104 20/20/17 13/13/20
f 21/21/48 20/20/17 1/76/104
f 1/77/104 47/47/45 21/21/48
f 1/78/104 48/48/50 47/47/45
f 54/54/96 52/52/105 53/53/51
f 1/79/104 54/54/96 48/48/50
f 55/55/106 84/128/107 54/54/96 1/80/104
f 10/10/13 11/11/103 12/12/14
f 84/128/107 55/55/106 85/129/108
f 53/53/51 52/52/105 75/106/109 58/58/53
f 76/108/110 55/90/106 1/89/104
s 28
f 55/97/111 52/96/112 77/110/113 76/109/114
s 27
f 8/103/115 74/105/97 78/112/100 77/111/116
f 52/100/117 77/111/116 78/112/100 75/107/101
s off
f 1/89/118 11/91/119 76/108/120
s 1
f 85/129/121 52/52/105 54/54/96 84/128/107
s 28
f 77/110/113 8/99/122 11/98/123 76/109/114
