# This file uses centimeters as units for non-parametric coordinates.

mtllib Floor_Stalag_2.mtl
g default
v 10.650635 0.220419 -5.786011
v 10.959829 1.584660 -5.906636
v 10.789226 2.354352 -5.662858
v 11.359338 2.622763 -5.644139
v 11.967539 1.745261 -5.906636
v 12.897095 0.220419 -5.786011
v 10.650635 0.220419 -4.869507
v 10.959829 1.584660 -4.748889
v 10.784298 2.321163 -4.984824
v 11.354411 2.618934 -4.966105
v 11.967539 1.745261 -4.748889
v 12.897095 0.220419 -4.869507
v 10.899292 0.911491 -5.786011
v 11.548418 1.664961 -6.099543
v 12.164062 0.974823 -5.786011
v 11.773804 0.220419 -5.938721
v 11.650879 0.950607 -5.938721
v 10.942882 1.987434 -5.853703
v 11.077355 2.505143 -5.772363
v 11.620048 2.383383 -5.829400
v 11.282686 2.193609 -6.009243
v 10.899292 0.911491 -4.869507
v 10.763685 1.557906 -5.327763
v 10.276184 0.220419 -5.327759
v 10.648682 0.898453 -5.327759
v 10.935568 1.938169 -4.847281
v 10.647447 2.414796 -5.321097
v 10.826406 1.896823 -5.354542
v 11.612734 2.334118 -4.822978
v 12.163683 1.772035 -5.327763
v 11.363091 2.785048 -5.297773
v 11.729340 2.424761 -5.322138
v 12.164062 0.974823 -4.869507
v 13.271484 0.220419 -5.327759
v 12.414551 0.987862 -5.327759
v 11.773804 0.220419 -4.716766
v 11.548418 1.664961 -4.555944
v 11.650879 0.950607 -4.716766
v 11.070704 2.460335 -4.856979
v 11.272935 2.127926 -4.667405
v 11.003725 3.096545 -5.287711
v 11.047450 2.958167 -4.864958
v 10.726624 2.841946 -5.292971
v 10.865341 2.716567 -4.776179
v 11.062528 2.985133 -5.721454
v 10.858920 2.771267 -5.822568
v 10.665318 2.527489 -5.729724
v 10.541674 2.518769 -5.302573
v 10.676679 2.487006 -4.879952
vt 0.466008 0.958053
vt 0.481729 0.933971
vt 0.512577 0.938666
vt 0.509356 0.968392
vt 0.481729 0.933971
vt 0.492366 0.908685
vt 0.512173 0.908407
vt 0.512577 0.938666
vt 0.512577 0.938666
vt 0.512173 0.908407
vt 0.527983 0.906802
vt 0.536530 0.942978
vt 0.509356 0.968392
vt 0.512577 0.938666
vt 0.536530 0.942978
vt 0.552316 0.985840
vt 0.492366 0.908685
vt 0.494020 0.882057
vt 0.508675 0.881523
vt 0.512173 0.908407
vt 0.494020 0.882057
vt 0.493919 0.860505
vt 0.507610 0.861440
vt 0.508675 0.881523
vt 0.508675 0.881523
vt 0.507610 0.861440
vt 0.521378 0.860170
vt 0.523059 0.879593
vt 0.512173 0.908407
vt 0.508675 0.881523
vt 0.523059 0.879593
vt 0.527983 0.906802
vt 0.653470 0.902250
vt 0.626217 0.888980
vt 0.640317 0.872071
vt 0.668443 0.885098
vt 0.626217 0.888980
vt 0.600406 0.872636
vt 0.613790 0.857003
vt 0.640317 0.872071
vt 0.640317 0.872071
vt 0.613790 0.857003
vt 0.622199 0.839953
vt 0.645672 0.852241
vt 0.668443 0.885098
vt 0.640317 0.872071
vt 0.645672 0.852241
vt 0.671532 0.862766
vt 0.600406 0.872636
vt 0.579997 0.854385
vt 0.591463 0.840824
vt 0.613790 0.857003
vt 0.579997 0.854385
vt 0.567119 0.839114
vt 0.571155 0.825923
vt 0.591463 0.840824
vt 0.591463 0.840824
vt 0.571155 0.825923
vt 0.582632 0.818238
vt 0.601026 0.825886
vt 0.613790 0.857003
vt 0.591463 0.840824
vt 0.601026 0.825886
vt 0.622199 0.839953
vt 0.548028 0.852652
vt 0.557080 0.869216
vt 0.540501 0.875246
vt 0.533508 0.851991
vt 0.557080 0.869216
vt 0.569494 0.893665
vt 0.549425 0.902577
vt 0.540501 0.875246
vt 0.540501 0.875246
vt 0.549425 0.902577
vt 0.527983 0.906802
vt 0.523059 0.879593
vt 0.533508 0.851991
vt 0.540501 0.875246
vt 0.523059 0.879593
vt 0.521378 0.860170
vt 0.569494 0.893665
vt 0.583725 0.928797
vt 0.561776 0.941776
vt 0.549425 0.902577
vt 0.583725 0.928797
vt 0.593884 0.974149
vt 0.576213 0.990953
vt 0.561776 0.941776
vt 0.561776 0.941776
vt 0.576213 0.990953
vt 0.552316 0.985840
vt 0.536530 0.942978
vt 0.549425 0.902577
vt 0.561776 0.941776
vt 0.536530 0.942978
vt 0.527983 0.906802
vt 0.653470 0.902250
vt 0.621881 0.935723
vt 0.601719 0.911402
vt 0.626217 0.888980
vt 0.621881 0.935723
vt 0.593884 0.974149
vt 0.583725 0.928797
vt 0.601719 0.911402
vt 0.601719 0.911402
vt 0.583725 0.928797
vt 0.569494 0.893665
vt 0.583506 0.885450
vt 0.626217 0.888980
vt 0.601719 0.911402
vt 0.583506 0.885450
vt 0.600406 0.872636
vt 0.600406 0.872636
vt 0.583506 0.885450
vt 0.569130 0.862915
vt 0.579997 0.854385
vt 0.583506 0.885450
vt 0.569494 0.893665
vt 0.557080 0.869216
vt 0.569130 0.862915
vt 0.569130 0.862915
vt 0.557080 0.869216
vt 0.548028 0.852652
vt 0.559167 0.847995
vt 0.579997 0.854385
vt 0.569130 0.862915
vt 0.559167 0.847995
vt 0.567119 0.839114
vt 0.548028 0.852652
vt 0.537769 0.843209
vt 0.549753 0.834425
vt 0.559167 0.847995
vt 0.537769 0.843209
vt 0.531789 0.830668
vt 0.539070 0.820133
vt 0.549753 0.834425
vt 0.549753 0.834425
vt 0.539070 0.820133
vt 0.551439 0.816630
vt 0.561867 0.826074
vt 0.559167 0.847995
vt 0.549753 0.834425
vt 0.561867 0.826074
vt 0.567119 0.839114
vt 0.548028 0.852652
vt 0.537769 0.843209
vt 0.559167 0.847995
vt 0.537769 0.843209
vt 0.531789 0.830668
vt 0.539070 0.820133
vt 0.539070 0.820133
vt 0.551439 0.816630
vt 0.561867 0.826074
vt 0.561867 0.826074
vt 0.567119 0.839114
vt 0.559167 0.847995
vn -0.134587 0.048433 -0.989718
vn -0.168056 0.048400 -0.984589
vn 0.020830 0.042591 -0.998875
vn 0.000062 0.035887 -0.999356
vn -0.168056 0.048400 -0.984589
vn -0.256900 0.024044 -0.966139
vn 0.046371 0.043036 -0.997997
vn 0.020830 0.042591 -0.998875
vn 0.020830 0.042591 -0.998875
vn 0.046371 0.043036 -0.997997
vn 0.345410 0.058016 -0.936657
vn 0.209418 0.035233 -0.977191
vn 0.000062 0.035887 -0.999356
vn 0.020830 0.042591 -0.998875
vn 0.209418 0.035233 -0.977191
vn 0.134710 0.022681 -0.990626
vn -0.256900 0.024044 -0.966139
vn -0.365223 0.080898 -0.927398
vn -0.365223 0.080898 -0.927398
vn 0.046371 0.043036 -0.997997
vn -0.365223 0.080898 -0.927398
vn -0.415309 0.161304 -0.895265
vn -0.415309 0.161304 -0.895265
vn -0.365223 0.080898 -0.927398
vn 0.371623 0.198856 -0.906837
vn 0.330057 0.325879 -0.885926
vn 0.330057 0.325879 -0.885926
vn 0.371623 0.198856 -0.906837
vn 0.046371 0.043036 -0.997997
vn 0.371623 0.198856 -0.906837
vn 0.371623 0.198856 -0.906837
vn 0.345410 0.058016 -0.936657
vn -0.745959 0.268425 0.609502
vn -0.807296 0.238645 0.539742
vn -0.807296 0.238645 0.539742
vn -0.745959 0.268425 0.609502
vn -0.807296 0.238645 0.539742
vn -0.912162 0.103743 0.396481
vn -0.912162 0.103743 0.396481
vn -0.807296 0.238645 0.539742
vn -0.777634 0.357219 -0.517378
vn -0.902367 0.187713 -0.387940
vn -0.902367 0.187713 -0.387940
vn -0.777634 0.357219 -0.517378
vn -0.712562 0.391517 -0.582212
vn -0.777634 0.357219 -0.517378
vn -0.777634 0.357219 -0.517378
vn -0.712562 0.391517 -0.582212
vn -0.912162 0.103743 0.396481
vn -0.958167 -0.020123 0.285501
vn -0.999937 -0.011246 0.000565
vn -0.981768 0.091526 0.166598
vn -0.958167 -0.020123 0.285501
vn -0.967586 -0.039249 0.249473
vn -0.998840 -0.048155 -0.000217
vn -0.999937 -0.011246 0.000565
vn -0.999937 -0.011246 0.000565
vn -0.966766 -0.054009 -0.249893
vn -0.958602 -0.001424 -0.284745
vn -0.978258 0.132529 -0.159522
vn -0.999937 -0.011246 0.000565
vn -0.958602 -0.001424 -0.284745
vn -0.902367 0.187713 -0.387940
vn 0.916118 0.289631 0.277204
vn 0.940576 0.212221 0.265102
vn 0.973665 0.227976 0.001795
vn 0.956886 0.290443 0.003590
vn 0.940576 0.212221 0.265102
vn 0.926705 0.244742 0.285167
vn 0.956278 0.292452 0.002237
vn 0.973665 0.227976 0.001795
vn 0.973665 0.227976 0.001795
vn 0.956278 0.292452 0.002237
vn 0.906048 0.315857 -0.281622
vn 0.938111 0.227641 -0.261012
vn 0.973665 0.227976 0.001795
vn 0.938111 0.227641 -0.261012
vn 0.924426 0.269029 -0.270298
vn 0.926705 0.244742 0.285167
vn 0.785751 0.507190 0.354054
vn 0.848718 0.510426 0.138362
vn 0.956278 0.292452 0.002237
vn 0.785751 0.507190 0.354054
vn 0.663146 0.644318 0.380909
vn 0.663146 0.644318 0.380909
vn 0.785751 0.507190 0.354054
vn 0.744327 0.575805 -0.338270
vn 0.622420 0.694935 -0.360082
vn 0.622420 0.694935 -0.360082
vn 0.744327 0.575805 -0.338270
vn 0.956278 0.292452 0.002237
vn 0.838114 0.530861 -0.125505
vn 0.744327 0.575805 -0.338270
vn 0.906048 0.315857 -0.281622
vn -0.134588 0.048430 0.989717
vn 0.000062 0.035885 0.999356
vn 0.020830 0.042591 0.998875
vn -0.168057 0.048399 0.984589
vn 0.000062 0.035885 0.999356
vn 0.134712 0.022681 0.990625
vn 0.209418 0.035233 0.977191
vn 0.020830 0.042591 0.998875
vn 0.020830 0.042591 0.998875
vn 0.209418 0.035233 0.977191
vn 0.345409 0.058015 0.936657
vn 0.046371 0.043036 0.997997
vn -0.168057 0.048399 0.984589
vn 0.020830 0.042591 0.998875
vn 0.046371 0.043036 0.997997
vn -0.256899 0.024044 0.966139
vn -0.256899 0.024044 0.966139
vn 0.046371 0.043036 0.997997
vn -0.365223 0.080899 0.927399
vn -0.365223 0.080899 0.927399
vn 0.046371 0.043036 0.997997
vn 0.345409 0.058015 0.936657
vn 0.371622 0.198856 0.906837
vn 0.371622 0.198856 0.906837
vn 0.371622 0.198856 0.906837
vn 0.371622 0.198856 0.906837
vn 0.330056 0.325878 0.885927
vn 0.330056 0.325878 0.885927
vn -0.365223 0.080899 0.927399
vn -0.365223 0.080899 0.927399
vn -0.415308 0.161305 0.895265
vn -0.415308 0.161305 0.895265
vn 0.018787 0.925404 0.378516
vn 0.018787 0.925404 0.378516
vn -0.102724 0.925472 0.364622
vn -0.102724 0.925472 0.364622
vn -0.029799 0.928101 -0.371135
vn -0.029799 0.928101 -0.371135
vn -0.106388 0.927011 -0.359629
vn -0.106388 0.927011 -0.359629
vn -0.106388 0.927011 -0.359629
vn -0.106388 0.927011 -0.359629
vn -0.182338 0.920359 -0.345965
vn -0.182338 0.920359 -0.345965
vn -0.102724 0.925472 0.364622
vn -0.102724 0.925472 0.364622
vn -0.222698 0.911697 0.345274
vn -0.222698 0.911697 0.345274
vn 0.018787 0.925404 0.378516
vn 0.018787 0.925404 0.378516
vn 0.367370 0.032056 0.929522
vn 0.367370 0.032056 0.929522
vn 0.018787 0.925404 0.378516
vn -0.102724 0.925472 0.364622
vn -0.029799 0.928101 -0.371135
vn 0.362472 0.109365 -0.925556
vn 0.362472 0.109365 -0.925556
vn -0.106388 0.927011 -0.359629
vn -0.029799 0.928101 -0.371135
vn -0.115003 -0.338532 -0.933901
vn -0.115003 -0.338532 -0.933901
vn -0.182338 0.920359 -0.345965
vn -0.106388 0.927011 -0.359629
vn -0.182338 0.920359 -0.345965
vn -0.182338 0.920359 -0.345965
vn -0.222698 0.911697 0.345274
vn -0.082375 -0.451842 0.888287
vn -0.082375 -0.451842 0.888287
vn -0.102724 0.925472 0.364622
vn -0.222698 0.911697 0.345274
s off
g polySurface20 Platform_Big
usemtl Platform_BigSG1
f 1/1/1 13/2/2 17/3/3 16/4/4
f 13/5/5 2/6/6 14/7/7 17/8/8
f 17/9/9 14/10/10 5/11/11 15/12/12
f 16/13/13 17/14/14 15/15/15 6/16/16
f 2/17/17 18/18/18 21/19/19 14/20/20
f 18/21/21 3/22/22 19/23/23 21/24/24
f 21/25/25 19/26/26 4/27/27 20/28/28
f 14/29/29 21/30/30 20/31/31 5/32/32
f 7/33/33 22/34/34 25/35/35 24/36/36
f 22/37/37 8/38/38 23/39/39 25/40/40
f 25/41/41 23/42/42 2/43/43 13/44/44
f 24/45/45 25/46/46 13/47/47 1/48/48
f 8/49/49 26/50/50 28/51/51 23/52/52
s 1
f 26/53/53 9/54/54 27/55/55 28/56/56
f 28/57/57 27/58/55 3/59/58 18/60/59
s off
f 23/61/60 28/62/61 18/63/62 2/64/63
s 3
f 10/65/64 29/66/65 32/67/66 31/68/67
s off
f 29/69/68 11/70/69 30/71/70 32/72/71
f 32/73/72 30/74/73 5/75/74 20/76/75
s 3
f 31/77/67 32/78/76 20/79/77 4/80/78
s off
f 11/81/79 33/82/80 35/83/81 30/84/82
f 33/85/83 12/86/84 34/87/85 35/88/86
f 35/89/87 34/90/88 6/91/89 15/92/90
f 30/93/91 35/94/92 15/95/93 5/96/94
f 7/97/95 36/98/96 38/99/97 22/100/98
f 36/101/99 12/102/100 33/103/101 38/104/102
f 38/105/103 33/106/104 11/107/105 37/108/106
f 22/109/107 38/110/108 37/111/109 8/112/110
f 8/113/111 37/114/112 40/115/113 26/116/114
f 37/117/115 11/118/116 29/119/117 40/120/118
f 40/121/119 29/122/120 10/123/121 39/124/122
f 26/125/123 40/126/124 39/127/125 9/128/126
f 42/145/127 41/146/128 43/131/129 44/147/130
f 41/148/131 45/149/132 46/150/133 43/136/134
f 43/137/135 46/151/136 47/152/137 48/153/138
f 44/156/139 43/142/140 48/154/141 49/155/142
s 3
f 10/129/64 31/130/67 41/146/143 42/145/144
s off
f 39/132/145 10/129/146 42/145/147 44/147/148
s 3
f 31/133/67 4/134/78 45/149/149 41/148/143
s off
f 4/134/150 19/135/151 46/150/152 45/149/153
f 19/138/154 3/139/155 47/152/156 46/151/157
s 1
f 3/139/58 27/140/55 48/153/158 47/152/159
f 27/143/55 9/144/54 49/155/160 48/154/158
s off
f 9/144/161 39/141/162 44/156/163 49/155/164
