# This file uses centimeters as units for non-parametric coordinates.

mtllib Floor_Stalag_3.mtl
g default
v 13.949463 0.250223 -5.786011
v 13.792603 1.817474 -5.786011
v 13.735107 3.425018 -5.786011
v 13.752075 4.903320 -5.786011
v 13.772705 5.759338 -5.667175
v 14.257080 5.687317 -5.667175
v 14.277344 4.702148 -5.786011
v 14.404297 3.339783 -5.786011
v 14.806763 1.654022 -5.786011
v 15.514160 0.250223 -5.786011
v 13.949463 0.250223 -4.869507
v 13.792603 1.817474 -4.869507
v 13.735107 3.425018 -4.869507
v 13.752075 4.903320 -4.869507
v 13.772705 5.759338 -4.988312
v 14.257080 5.687317 -4.988312
v 14.277344 4.702148 -4.869507
v 14.404297 3.339783 -4.869507
v 14.806763 1.654022 -4.869507
v 15.514160 0.250223 -4.869507
v 13.863770 1.029778 -5.786011
v 14.299683 1.735748 -5.938721
v 15.137939 0.923599 -5.786011
v 14.731812 0.250223 -5.938721
v 14.500854 0.976685 -5.938721
v 13.750244 2.621490 -5.786011
v 14.069702 3.382416 -5.938721
v 14.566040 2.498535 -5.786011
v 14.158081 2.560013 -5.938721
v 13.745483 4.211334 -5.786011
v 14.014648 4.802734 -5.938721
v 14.309937 4.060455 -5.786011
v 14.027710 4.135895 -5.938721
v 13.725098 5.423950 -5.786011
v 14.015625 5.748047 -5.786011
v 14.300659 5.306580 -5.786011
v 14.012817 5.365295 -5.938721
v 13.863770 1.029778 -4.869507
v 13.623535 1.844727 -5.327759
v 13.688721 0.250223 -5.327759
v 13.651489 1.047470 -5.327759
v 13.750244 2.621490 -4.869507
v 13.623535 3.439209 -5.327759
v 13.614258 2.641968 -5.327759
v 13.745483 4.211334 -4.869507
v 13.664551 4.936859 -5.327759
v 13.651489 4.236481 -5.327759
v 13.725098 5.423950 -4.869507
v 13.681274 5.845886 -5.327759
v 13.629150 5.443542 -5.327759
v 14.015625 5.748047 -4.869507
v 14.349976 5.799316 -5.327759
v 14.016602 5.875671 -5.327759
v 14.300659 5.306580 -4.869507
v 14.364868 4.668610 -5.327759
v 14.396606 5.287048 -5.327759
v 14.309937 4.060455 -4.869507
v 14.515747 3.325592 -5.327759
v 14.404053 4.035309 -5.327759
v 14.566040 2.498535 -4.869507
v 14.975830 1.626785 -5.327759
v 14.702026 2.478058 -5.327759
v 15.137939 0.923599 -4.869507
v 15.775024 0.250223 -5.327759
v 15.350220 0.905907 -5.327759
v 14.731812 0.250223 -4.716766
v 14.299683 1.735748 -4.716766
v 14.500854 0.976685 -4.716766
v 14.069702 3.382416 -4.716766
v 14.158081 2.560013 -4.716766
v 14.014648 4.802734 -4.716766
v 14.027710 4.135895 -4.716766
v 14.012817 5.365295 -4.716766
vt 0.779410 0.253632
vt 0.789486 0.222988
vt 0.813708 0.235887
vt 0.809082 0.267484
vt 0.789486 0.222988
vt 0.798591 0.191865
vt 0.818396 0.202548
vt 0.813708 0.235887
vt 0.813708 0.235887
vt 0.818396 0.202548
vt 0.839177 0.214107
vt 0.838353 0.250165
vt 0.809082 0.267484
vt 0.813708 0.235887
vt 0.838353 0.250165
vt 0.837949 0.283044
vt 0.798591 0.191865
vt 0.806611 0.159771
vt 0.823491 0.166987
vt 0.818396 0.202548
vt 0.806611 0.159771
vt 0.813405 0.127515
vt 0.827884 0.132270
vt 0.823491 0.166987
vt 0.823491 0.166987
vt 0.827884 0.132270
vt 0.842760 0.137077
vt 0.841061 0.174512
vt 0.818396 0.202548
vt 0.823491 0.166987
vt 0.841061 0.174512
vt 0.839177 0.214107
vt 0.813405 0.127515
vt 0.819368 0.096183
vt 0.831660 0.101307
vt 0.827884 0.132270
vt 0.819368 0.096183
vt 0.823928 0.068964
vt 0.835000 0.074909
vt 0.831660 0.101307
vt 0.831660 0.101307
vt 0.835000 0.074909
vt 0.846245 0.080388
vt 0.844228 0.106348
vt 0.827884 0.132270
vt 0.831660 0.101307
vt 0.844228 0.106348
vt 0.842760 0.137077
vt 0.823928 0.068964
vt 0.827640 0.048676
vt 0.838374 0.054394
vt 0.835000 0.074909
vt 0.827640 0.048676
vt 0.832963 0.035151
vt 0.842843 0.039830
vt 0.838374 0.054394
vt 0.838374 0.054394
vt 0.842843 0.039830
vt 0.853177 0.043980
vt 0.849131 0.058225
vt 0.835000 0.074909
vt 0.838374 0.054394
vt 0.849131 0.058225
vt 0.846245 0.080388
vt 0.941656 0.259611
vt 0.933698 0.227485
vt 0.953890 0.220944
vt 0.962673 0.253178
vt 0.933698 0.227485
vt 0.926093 0.194820
vt 0.945614 0.188666
vt 0.953890 0.220944
vt 0.953890 0.220944
vt 0.945614 0.188666
vt 0.965499 0.185022
vt 0.974462 0.216611
vt 0.962673 0.253178
vt 0.953890 0.220944
vt 0.974462 0.216611
vt 0.983963 0.247916
vt 0.926093 0.194820
vt 0.918963 0.161641
vt 0.938051 0.156529
vt 0.945614 0.188666
vt 0.918963 0.161641
vt 0.912699 0.129005
vt 0.931229 0.124792
vt 0.938051 0.156529
vt 0.938051 0.156529
vt 0.931229 0.124792
vt 0.949757 0.121232
vt 0.957246 0.152937
vt 0.945614 0.188666
vt 0.938051 0.156529
vt 0.957246 0.152937
vt 0.965499 0.185022
vt 0.912699 0.129005
vt 0.907268 0.098055
vt 0.924951 0.093816
vt 0.931229 0.124792
vt 0.907268 0.098055
vt 0.903154 0.072407
vt 0.919520 0.067745
vt 0.924951 0.093816
vt 0.924951 0.093816
vt 0.919520 0.067745
vt 0.936908 0.064852
vt 0.942930 0.090827
vt 0.931229 0.124792
vt 0.924951 0.093816
vt 0.942930 0.090827
vt 0.949757 0.121232
vt 0.903154 0.072407
vt 0.900101 0.055204
vt 0.914881 0.049915
vt 0.919520 0.067745
vt 0.900101 0.055204
vt 0.898220 0.043060
vt 0.910071 0.035653
vt 0.914881 0.049915
vt 0.914881 0.049915
vt 0.910071 0.035653
vt 0.923931 0.034392
vt 0.931683 0.045791
vt 0.919520 0.067745
vt 0.914881 0.049915
vt 0.931683 0.045791
vt 0.936908 0.064852
vt 0.898220 0.043060
vt 0.889949 0.047003
vt 0.887312 0.031880
vt 0.899165 0.029623
vt 0.889949 0.047003
vt 0.880635 0.046880
vt 0.875305 0.034289
vt 0.887312 0.031880
vt 0.887312 0.031880
vt 0.875305 0.034289
vt 0.875273 0.020768
vt 0.883672 0.015200
vt 0.899165 0.029623
vt 0.887312 0.031880
vt 0.883672 0.015200
vt 0.893351 0.017530
vt 0.880635 0.046880
vt 0.881454 0.060810
vt 0.865554 0.060230
vt 0.867418 0.041093
vt 0.881454 0.060810
vt 0.881955 0.081920
vt 0.864223 0.083057
vt 0.865554 0.060230
vt 0.865554 0.060230
vt 0.864223 0.083057
vt 0.846245 0.080388
vt 0.849131 0.058225
vt 0.867418 0.041093
vt 0.865554 0.060230
vt 0.849131 0.058225
vt 0.853177 0.043980
vt 0.881955 0.081920
vt 0.882678 0.107253
vt 0.863485 0.108628
vt 0.864223 0.083057
vt 0.882678 0.107253
vt 0.883146 0.137794
vt 0.862925 0.139188
vt 0.863485 0.108628
vt 0.863485 0.108628
vt 0.862925 0.139188
vt 0.842760 0.137077
vt 0.844228 0.106348
vt 0.864223 0.083057
vt 0.863485 0.108628
vt 0.844228 0.106348
vt 0.846245 0.080388
vt 0.883146 0.137794
vt 0.883586 0.175389
vt 0.862230 0.177635
vt 0.862925 0.139188
vt 0.883586 0.175389
vt 0.883596 0.215368
vt 0.861219 0.218767
vt 0.862230 0.177635
vt 0.862230 0.177635
vt 0.861219 0.218767
vt 0.839177 0.214107
vt 0.841061 0.174512
vt 0.862925 0.139188
vt 0.862230 0.177635
vt 0.841061 0.174512
vt 0.842760 0.137077
vt 0.883596 0.215368
vt 0.882094 0.251768
vt 0.859991 0.255921
vt 0.861219 0.218767
vt 0.882094 0.251768
vt 0.879868 0.284896
vt 0.858631 0.289448
vt 0.859991 0.255921
vt 0.859991 0.255921
vt 0.858631 0.289448
vt 0.837949 0.283044
vt 0.838353 0.250165
vt 0.861219 0.218767
vt 0.859991 0.255921
vt 0.838353 0.250165
vt 0.839177 0.214107
vt 0.941656 0.259611
vt 0.910433 0.271670
vt 0.908033 0.239062
vt 0.933698 0.227485
vt 0.910433 0.271670
vt 0.879868 0.284896
vt 0.882094 0.251768
vt 0.908033 0.239062
vt 0.908033 0.239062
vt 0.882094 0.251768
vt 0.883596 0.215368
vt 0.905274 0.204793
vt 0.933698 0.227485
vt 0.908033 0.239062
vt 0.905274 0.204793
vt 0.926093 0.194820
vt 0.926093 0.194820
vt 0.905274 0.204793
vt 0.901603 0.168455
vt 0.918963 0.161641
vt 0.905274 0.204793
vt 0.883596 0.215368
vt 0.883586 0.175389
vt 0.901603 0.168455
vt 0.901603 0.168455
vt 0.883586 0.175389
vt 0.883146 0.137794
vt 0.898145 0.133434
vt 0.918963 0.161641
vt 0.901603 0.168455
vt 0.898145 0.133434
vt 0.912699 0.129005
vt 0.912699 0.129005
vt 0.898145 0.133434
vt 0.895182 0.102758
vt 0.907268 0.098055
vt 0.898145 0.133434
vt 0.883146 0.137794
vt 0.882678 0.107253
vt 0.895182 0.102758
vt 0.895182 0.102758
vt 0.882678 0.107253
vt 0.881955 0.081920
vt 0.892843 0.077470
vt 0.907268 0.098055
vt 0.895182 0.102758
vt 0.892843 0.077470
vt 0.903154 0.072407
vt 0.903154 0.072407
vt 0.892843 0.077470
vt 0.891190 0.059046
vt 0.900101 0.055204
vt 0.892843 0.077470
vt 0.881955 0.081920
vt 0.881454 0.060810
vt 0.891190 0.059046
vt 0.891190 0.059046
vt 0.881454 0.060810
vt 0.880635 0.046880
vt 0.889949 0.047003
vt 0.900101 0.055204
vt 0.891190 0.059046
vt 0.889949 0.047003
vt 0.898220 0.043060
vn -0.191576 -0.021055 -0.981252
vn -0.213229 -0.021151 -0.976773
vn 0.000657 0.020884 -0.999782
vn -0.000159 0.020271 -0.999795
vn -0.213229 -0.021151 -0.976773
vn -0.262813 -0.018285 -0.964674
vn 0.002016 0.020035 -0.999797
vn 0.000657 0.020884 -0.999782
vn 0.000657 0.020884 -0.999782
vn 0.002016 0.020035 -0.999797
vn 0.266710 0.056897 -0.962096
vn 0.214520 0.061916 -0.974755
vn -0.000159 0.020271 -0.999795
vn 0.000657 0.020884 -0.999782
vn 0.214520 0.061916 -0.974755
vn 0.191263 0.060812 -0.979653
vn -0.262813 -0.018285 -0.964674
vn -0.321243 -0.010975 -0.946933
vn 0.002332 0.017734 -0.999840
vn 0.002016 0.020035 -0.999797
vn -0.321243 -0.010975 -0.946933
vn -0.383339 -0.000548 -0.923608
vn -0.383339 -0.000548 -0.923608
vn 0.002332 0.017734 -0.999840
vn 0.002332 0.017734 -0.999840
vn 0.386761 0.030754 -0.921667
vn 0.386761 0.030754 -0.921667
vn 0.325651 0.044522 -0.944441
vn 0.002016 0.020035 -0.999797
vn 0.002332 0.017734 -0.999840
vn 0.325651 0.044522 -0.944441
vn 0.266710 0.056897 -0.962096
vn -0.383339 -0.000548 -0.923608
vn -0.445137 0.005004 -0.895449
vn -0.445137 0.005004 -0.895449
vn -0.383339 -0.000548 -0.923608
vn -0.445137 0.005004 -0.895449
vn -0.492750 -0.010998 -0.870101
vn -0.492750 -0.010998 -0.870101
vn -0.445137 0.005004 -0.895449
vn 0.448028 0.016297 -0.893871
vn 0.490611 0.005505 -0.871361
vn 0.490611 0.005505 -0.871361
vn 0.448028 0.016297 -0.893871
vn 0.386761 0.030754 -0.921667
vn 0.448028 0.016297 -0.893871
vn 0.448028 0.016297 -0.893871
vn 0.386761 0.030754 -0.921667
vn -0.492750 -0.010998 -0.870101
vn -0.454587 0.168440 -0.874631
vn -0.454587 0.168440 -0.874631
vn -0.492750 -0.010998 -0.870101
vn -0.454587 0.168440 -0.874631
vn -0.380296 0.356389 -0.853441
vn -0.380296 0.356389 -0.853441
vn -0.454587 0.168440 -0.874631
vn 0.505329 0.162490 -0.847490
vn 0.494244 0.319067 -0.808653
vn 0.494244 0.319067 -0.808653
vn 0.505329 0.162490 -0.847490
vn 0.490611 0.005505 -0.871361
vn 0.505329 0.162490 -0.847490
vn 0.505329 0.162490 -0.847490
vn 0.490611 0.005505 -0.871361
vn -0.865170 -0.095100 0.492378
vn -0.886156 -0.088584 0.454841
vn -0.886156 -0.088584 0.454841
vn -0.865170 -0.095100 0.492378
vn -0.886156 -0.088584 0.454841
vn -0.922597 -0.065732 0.380123
vn -0.922597 -0.065732 0.380123
vn -0.886156 -0.088584 0.454841
vn -0.888659 -0.036222 -0.457137
vn -0.923625 -0.021398 -0.382700
vn -0.923625 -0.021398 -0.382700
vn -0.888659 -0.036222 -0.457137
vn -0.868395 -0.040580 -0.494211
vn -0.888659 -0.036222 -0.457137
vn -0.888659 -0.036222 -0.457137
vn -0.868395 -0.040580 -0.494211
vn -0.922597 -0.065732 0.380123
vn -0.948958 -0.033770 0.313588
vn -0.992718 -0.019575 0.118859
vn -0.922597 -0.065732 0.380123
vn -0.948958 -0.033770 0.313588
vn -0.965502 -0.002557 0.260382
vn -0.999946 0.010392 -0.000448
vn -0.999842 -0.017728 -0.000962
vn -0.999842 -0.017728 -0.000962
vn -0.999946 0.010392 -0.000448
vn -0.965010 0.022619 -0.261235
vn -0.948959 0.000118 -0.315399
vn -0.923625 -0.021398 -0.382700
vn -0.992689 -0.006196 -0.120537
vn -0.948959 0.000118 -0.315399
vn -0.923625 -0.021398 -0.382700
vn -0.965502 -0.002557 0.260382
vn -0.975607 0.011088 0.219246
vn -0.999818 0.019076 -0.000243
vn -0.999946 0.010392 -0.000448
vn -0.975607 0.011088 0.219246
vn -0.981018 -0.020860 0.192790
vn -0.999725 -0.023451 0.000253
vn -0.999818 0.019076 -0.000243
vn -0.999818 0.019076 -0.000243
vn -0.999725 -0.023451 0.000253
vn -0.980996 -0.025165 -0.192390
vn -0.975211 0.026133 -0.219727
vn -0.999946 0.010392 -0.000448
vn -0.999818 0.019076 -0.000243
vn -0.975211 0.026133 -0.219727
vn -0.965010 0.022619 -0.261235
vn -0.981018 -0.020860 0.192790
vn -0.976900 0.080166 0.198091
vn -0.998458 0.055515 0.000498
vn -0.999725 -0.023451 0.000253
vn -0.976900 0.080166 0.198091
vn -0.955151 0.209862 0.208913
vn -0.985143 0.171735 0.000255
vn -0.998458 0.055515 0.000498
vn -0.998458 0.055515 0.000498
vn -0.985143 0.171735 0.000255
vn -0.969926 0.125727 -0.208415
vn -0.980113 0.028746 -0.196345
vn -0.999725 -0.023451 0.000253
vn -0.998458 0.055515 0.000498
vn -0.980113 0.028746 -0.196345
vn -0.980996 -0.025165 -0.192390
vn -0.086459 0.959568 0.267871
vn 0.135544 0.954275 0.266435
vn 0.104306 0.994542 -0.002706
vn -0.089141 0.996019 0.000137
vn 0.135544 0.954275 0.266435
vn 0.350862 0.901922 0.251859
vn 0.293786 0.955856 -0.005446
vn 0.104306 0.994542 -0.002706
vn 0.104306 0.994542 -0.002706
vn 0.293786 0.955856 -0.005446
vn 0.215448 0.940612 -0.262358
vn 0.065818 0.961156 -0.268044
vn -0.089141 0.996019 0.000137
vn 0.104306 0.994542 -0.002706
vn 0.065818 0.961156 -0.268044
vn -0.085315 0.959744 -0.267607
vn 0.751419 0.278089 0.598361
vn 0.859975 0.174894 0.479432
vn 0.998541 0.053390 0.008095
vn 0.987938 0.153961 0.016554
vn 0.960171 0.084951 0.266186
vn 0.980723 0.006109 0.195307
vn 0.999983 0.005814 0.000121
vn 0.998541 0.053390 0.008095
vn 0.998541 0.053390 0.008095
vn 0.999983 0.005814 0.000121
vn 0.980753 0.005294 -0.195182
vn 0.968343 0.018372 -0.248947
vn 0.987938 0.153961 0.016554
vn 0.998541 0.053390 0.008095
vn 0.968343 0.018372 -0.248947
vn 0.953228 0.086658 -0.289564
vn 0.980723 0.006109 0.195307
vn 0.978069 0.088660 0.188471
vn 0.995039 0.099489 0.000747
vn 0.999983 0.005814 0.000121
vn 0.978069 0.088660 0.188471
vn 0.965213 0.155731 0.210029
vn 0.985061 0.172201 0.001022
vn 0.995039 0.099489 0.000747
vn 0.995039 0.099489 0.000747
vn 0.985061 0.172201 0.001022
vn 0.961223 0.181034 -0.208032
vn 0.976528 0.106773 -0.187063
vn 0.999983 0.005814 0.000121
vn 0.995039 0.099489 0.000747
vn 0.976528 0.106773 -0.187063
vn 0.980753 0.005294 -0.195182
vn 0.965213 0.155731 0.210029
vn 0.943043 0.224461 0.245533
vn 0.969251 0.246068 0.001501
vn 0.985061 0.172201 0.001022
vn 0.943043 0.224461 0.245533
vn 0.901058 0.330213 0.281166
vn 0.931218 0.364445 0.003633
vn 0.969251 0.246068 0.001501
vn 0.969251 0.246068 0.001501
vn 0.931218 0.364445 0.003633
vn 0.887657 0.369841 -0.274379
vn 0.936612 0.252737 -0.242656
vn 0.985061 0.172201 0.001022
vn 0.969251 0.246068 0.001501
vn 0.936612 0.252737 -0.242656
vn 0.961223 0.181034 -0.208032
vn 0.901058 0.330213 0.281166
vn 0.843158 0.425218 0.329050
vn 0.879085 0.476620 0.006504
vn 0.931218 0.364445 0.003633
vn 0.843158 0.425218 0.329050
vn 0.814475 0.455116 0.359862
vn 0.814475 0.455116 0.359862
vn 0.879085 0.476620 0.006504
vn 0.879085 0.476620 0.006504
vn 0.787683 0.510206 -0.345319
vn 0.787683 0.510206 -0.345319
vn 0.820080 0.476558 -0.316798
vn 0.931218 0.364445 0.003633
vn 0.879085 0.476620 0.006504
vn 0.820080 0.476558 -0.316798
vn 0.887657 0.369841 -0.274379
vn -0.191578 -0.021058 0.981252
vn -0.000159 0.020269 0.999795
vn 0.000657 0.020883 0.999782
vn -0.213230 -0.021152 0.976773
vn -0.000159 0.020269 0.999795
vn 0.191265 0.060813 0.979653
vn 0.214521 0.061917 0.974755
vn 0.000657 0.020883 0.999782
vn 0.000657 0.020883 0.999782
vn 0.214521 0.061917 0.974755
vn 0.266710 0.056897 0.962096
vn 0.002016 0.020035 0.999797
vn -0.213230 -0.021152 0.976773
vn 0.000657 0.020883 0.999782
vn 0.002016 0.020035 0.999797
vn -0.262812 -0.018285 0.964674
vn -0.262812 -0.018285 0.964674
vn 0.002016 0.020035 0.999797
vn 0.002332 0.017734 0.999840
vn -0.321242 -0.010975 0.946934
vn 0.002016 0.020035 0.999797
vn 0.266710 0.056897 0.962096
vn 0.325650 0.044522 0.944442
vn 0.002332 0.017734 0.999840
vn 0.002332 0.017734 0.999840
vn 0.325650 0.044522 0.944442
vn 0.386760 0.030754 0.921667
vn 0.386760 0.030754 0.921667
vn -0.321242 -0.010975 0.946934
vn 0.002332 0.017734 0.999840
vn -0.383338 -0.000548 0.923608
vn -0.383338 -0.000548 0.923608
vn -0.383338 -0.000548 0.923608
vn -0.383338 -0.000548 0.923608
vn -0.445136 0.005004 0.895449
vn -0.445136 0.005004 0.895449
vn 0.386760 0.030754 0.921667
vn 0.386760 0.030754 0.921667
vn 0.448027 0.016297 0.893872
vn 0.448027 0.016297 0.893872
vn 0.448027 0.016297 0.893872
vn 0.448027 0.016297 0.893872
vn 0.490610 0.005505 0.871362
vn 0.490610 0.005505 0.871362
vn -0.445136 0.005004 0.895449
vn -0.445136 0.005004 0.895449
vn -0.492749 -0.010998 0.870102
vn -0.492749 -0.010998 0.870102
vn -0.492749 -0.010998 0.870102
vn -0.492749 -0.010998 0.870102
vn -0.454585 0.168442 0.874631
vn -0.454585 0.168442 0.874631
vn 0.490610 0.005505 0.871362
vn 0.490610 0.005505 0.871362
vn 0.505328 0.162490 0.847491
vn 0.505328 0.162490 0.847491
vn 0.505328 0.162490 0.847491
vn 0.681767 0.186839 0.707309
vn 0.751419 0.278089 0.598361
vn 0.494243 0.319066 0.808654
vn -0.454585 0.168442 0.874631
vn -0.454585 0.168442 0.874631
vn -0.380294 0.356391 0.853441
vn -0.380294 0.356391 0.853441
s off
g polySurface18 Platform_Big
usemtl Platform_BigSG1
f 1/1/1 21/2/2 25/3/3 24/4/4
f 21/5/5 2/6/6 22/7/7 25/8/8
f 25/9/9 22/10/10 9/11/11 23/12/12
f 24/13/13 25/14/14 23/15/15 10/16/16
f 2/17/17 26/18/18 29/19/19 22/20/20
f 26/21/21 3/22/22 27/23/23 29/24/24
f 29/25/25 27/26/26 8/27/27 28/28/28
f 22/29/29 29/30/30 28/31/31 9/32/32
f 3/33/33 30/34/34 33/35/35 27/36/36
f 30/37/37 4/38/38 31/39/39 33/40/40
f 33/41/41 31/42/42 7/43/43 32/44/44
f 27/45/45 33/46/46 32/47/47 8/48/48
f 4/49/49 34/50/50 37/51/51 31/52/52
f 34/53/53 5/54/54 35/55/55 37/56/56
f 37/57/57 35/58/58 6/59/59 36/60/60
f 31/61/61 37/62/62 36/63/63 7/64/64
f 11/65/65 38/66/66 41/67/67 40/68/68
f 38/69/69 12/70/70 39/71/71 41/72/72
f 41/73/73 39/74/74 2/75/75 21/76/76
f 40/77/77 41/78/78 21/79/79 1/80/80
f 12/81/81 42/82/82 44/83/83 39/84/84
f 42/85/85 13/86/86 43/87/87 44/88/88
f 44/89/89 43/90/90 3/91/91 26/92/92
f 39/93/93 44/94/94 26/95/95 2/96/96
f 13/97/97 45/98/98 47/99/99 43/100/100
f 45/101/101 14/102/102 46/103/103 47/104/104
f 47/105/105 46/106/106 4/107/107 30/108/108
f 43/109/109 47/110/110 30/111/111 3/112/112
f 14/113/113 48/114/114 50/115/115 46/116/116
f 48/117/117 15/118/118 49/119/119 50/120/120
f 50/121/121 49/122/122 5/123/123 34/124/124
f 46/125/125 50/126/126 34/127/127 4/128/128
f 15/129/129 51/130/130 53/131/131 49/132/132
f 51/133/133 16/134/134 52/135/135 53/136/136
f 53/137/137 52/138/138 6/139/139 35/140/140
f 49/141/141 53/142/142 35/143/143 5/144/144
f 16/145/145 54/146/146 56/147/147 52/148/148
f 54/149/149 17/150/150 55/151/151 56/152/152
f 56/153/153 55/154/154 7/155/155 36/156/156
f 52/157/157 56/158/158 36/159/159 6/160/160
f 17/161/161 57/162/162 59/163/163 55/164/164
f 57/165/165 18/166/166 58/167/167 59/168/168
f 59/169/169 58/170/170 8/171/171 32/172/172
f 55/173/173 59/174/174 32/175/175 7/176/176
f 18/177/177 60/178/178 62/179/179 58/180/180
f 60/181/181 19/182/182 61/183/183 62/184/184
f 62/185/185 61/186/186 9/187/187 28/188/188
f 58/189/189 62/190/190 28/191/191 8/192/192
f 19/193/193 63/194/194 65/195/195 61/196/196
f 63/197/197 20/198/198 64/199/199 65/200/200
f 65/201/201 64/202/202 10/203/203 23/204/204
f 61/205/205 65/206/206 23/207/207 9/208/208
f 11/209/209 66/210/210 68/211/211 38/212/212
f 66/213/213 20/214/214 63/215/215 68/216/216
f 68/217/217 63/218/218 19/219/219 67/220/220
f 38/221/221 68/222/222 67/223/223 12/224/224
f 12/225/225 67/226/226 70/227/227 42/228/228
f 67/229/229 19/230/230 60/231/231 70/232/232
f 70/233/233 60/234/234 18/235/235 69/236/236
f 42/237/237 70/238/238 69/239/239 13/240/240
f 13/241/241 69/242/242 72/243/243 45/244/244
f 69/245/245 18/246/246 57/247/247 72/248/248
f 72/249/249 57/250/250 17/251/251 71/252/252
f 45/253/253 72/254/254 71/255/255 14/256/256
f 14/257/257 71/258/258 73/259/259 48/260/260
f 71/261/261 17/262/262 54/263/263 73/264/264
f 73/265/265 54/266/266 16/267/267 51/268/268
f 48/269/269 73/270/270 51/271/271 15/272/272
