# This file uses centimeters as units for non-parametric coordinates.

mtllib Floor_Stalag_4.mtl
g default
v 14.833618 4.876801 -7.711731
v 18.086670 0.321007 -5.786011
v 18.208862 1.918060 -5.786011
v 18.072144 3.533752 -5.786011
v 17.948364 5.121033 -5.786011
v 17.873291 6.590576 -5.667175
v 18.766479 6.546692 -5.667175
v 18.873169 5.108459 -5.786011
v 18.801514 3.519775 -5.786011
v 18.819336 1.888733 -5.786011
v 19.349609 0.298653 -5.786011
v 18.086670 0.321007 -4.869507
v 18.208862 1.918060 -4.869507
v 18.072144 3.533752 -4.869507
v 17.948364 5.121033 -4.869507
v 17.873291 6.590576 -4.988312
v 18.766479 6.546692 -4.988312
v 18.873169 5.108459 -4.869507
v 18.801514 3.519775 -4.869507
v 18.819336 1.888733 -4.869507
v 19.349609 0.298653 -4.869507
v 18.170410 1.117325 -5.786011
v 18.514160 1.903397 -5.938721
v 18.937866 1.074478 -5.786011
v 18.718140 0.309830 -5.938721
v 18.606323 1.103355 -5.938721
v 18.156494 2.727661 -5.786011
v 18.436768 3.526764 -5.938721
v 18.765625 2.705292 -5.786011
v 18.461060 2.716492 -5.938721
v 18.014893 4.324005 -5.786011
v 18.410767 5.114746 -5.938721
v 18.847534 4.312836 -5.786011
v 18.431274 4.318420 -5.938721
v 17.836060 5.947388 -5.786011
v 18.271973 6.567688 -5.786011
v 18.847534 5.930603 -5.786011
v 18.341797 5.939026 -5.938721
v 18.170410 1.117325 -4.869507
v 18.107178 1.922958 -5.327759
v 17.876099 0.324734 -5.327759
v 18.025146 1.121979 -5.327759
v 18.156494 2.727661 -4.869507
v 17.950684 3.536072 -5.327759
v 18.054932 2.731384 -5.327759
v 18.014893 4.324005 -4.869507
v 17.794189 5.123138 -5.327759
v 17.876099 4.325867 -5.327759
v 17.836060 5.947388 -4.869507
v 17.708496 6.756775 -5.327759
v 17.667480 5.950195 -5.327759
v 18.271973 6.567688 -4.869507
v 18.895020 6.706482 -5.327759
v 18.248657 6.777222 -5.327759
v 18.847534 5.930603 -4.869507
v 19.027344 5.106354 -5.327759
v 19.016113 5.927856 -5.327759
v 18.847534 4.312836 -4.869507
v 18.922974 3.517456 -5.327759
v 18.986328 4.310974 -5.327759
v 18.765625 2.705292 -4.869507
v 18.921143 1.883835 -5.327759
v 18.867065 2.701569 -5.327759
v 18.937866 1.074478 -4.869507
v 19.560059 0.294928 -5.327759
v 19.083252 1.069824 -5.327759
v 18.718140 0.309830 -4.716766
v 18.514160 1.903397 -4.716766
v 18.606323 1.103355 -4.716766
v 18.436768 3.526764 -4.716766
v 18.461060 2.716492 -4.716766
v 18.410767 5.114746 -4.716766
v 18.431274 4.318420 -4.716766
v 18.341797 5.939026 -4.716766
vt 0.779141 0.577762
vt 0.793110 0.549200
vt 0.811146 0.555263
vt 0.803087 0.587214
vt 0.793110 0.549200
vt 0.801022 0.518166
vt 0.814879 0.520885
vt 0.811146 0.555263
vt 0.811146 0.555263
vt 0.814879 0.520885
vt 0.829510 0.523762
vt 0.826392 0.561463
vt 0.803087 0.587214
vt 0.811146 0.555263
vt 0.826392 0.561463
vt 0.825909 0.599392
vt 0.801022 0.518166
vt 0.801541 0.484882
vt 0.815779 0.485938
vt 0.814879 0.520885
vt 0.801541 0.484882
vt 0.798236 0.451091
vt 0.814763 0.451414
vt 0.815779 0.485938
vt 0.815779 0.485938
vt 0.814763 0.451414
vt 0.831341 0.451576
vt 0.830530 0.487026
vt 0.814879 0.520885
vt 0.815779 0.485938
vt 0.830530 0.487026
vt 0.829510 0.523762
vt 0.798236 0.451091
vt 0.795958 0.417740
vt 0.814272 0.418408
vt 0.814763 0.451414
vt 0.795958 0.417740
vt 0.794930 0.384135
vt 0.814590 0.386119
vt 0.814272 0.418408
vt 0.814272 0.418408
vt 0.814590 0.386119
vt 0.833396 0.387596
vt 0.832163 0.418768
vt 0.814763 0.451414
vt 0.814272 0.418408
vt 0.832163 0.418768
vt 0.831341 0.451576
vt 0.794930 0.384135
vt 0.795131 0.349431
vt 0.815703 0.353674
vt 0.814590 0.386119
vt 0.795131 0.349431
vt 0.801738 0.322724
vt 0.818398 0.327856
vt 0.815703 0.353674
vt 0.815703 0.353674
vt 0.818398 0.327856
vt 0.839113 0.332701
vt 0.835150 0.356947
vt 0.814590 0.386119
vt 0.815703 0.353674
vt 0.835150 0.356947
vt 0.833396 0.387596
vt 0.917382 0.590727
vt 0.909355 0.557212
vt 0.930186 0.553863
vt 0.937693 0.587271
vt 0.909355 0.557212
vt 0.904209 0.521162
vt 0.925058 0.519028
vt 0.930186 0.553863
vt 0.930186 0.553863
vt 0.925058 0.519028
vt 0.944782 0.517142
vt 0.949886 0.549672
vt 0.937693 0.587271
vt 0.930186 0.553863
vt 0.949886 0.549672
vt 0.957476 0.581639
vt 0.904209 0.521162
vt 0.902992 0.484663
vt 0.923213 0.483869
vt 0.925058 0.519028
vt 0.902992 0.484663
vt 0.904018 0.450041
vt 0.923427 0.449820
vt 0.923213 0.483869
vt 0.923213 0.483869
vt 0.923427 0.449820
vt 0.942719 0.450562
vt 0.942754 0.483839
vt 0.925058 0.519028
vt 0.923213 0.483869
vt 0.942754 0.483839
vt 0.944782 0.517142
vt 0.904018 0.450041
vt 0.904863 0.417807
vt 0.923914 0.417548
vt 0.923427 0.449820
vt 0.904863 0.417807
vt 0.905432 0.386535
vt 0.923968 0.385727
vt 0.923914 0.417548
vt 0.923914 0.417548
vt 0.923968 0.385727
vt 0.942959 0.386063
vt 0.943105 0.418255
vt 0.923427 0.449820
vt 0.923914 0.417548
vt 0.943105 0.418255
vt 0.942719 0.450562
vt 0.905432 0.386535
vt 0.905602 0.356184
vt 0.922713 0.354108
vt 0.923968 0.385727
vt 0.905602 0.356184
vt 0.904118 0.331889
vt 0.918247 0.323416
vt 0.922713 0.354108
vt 0.922713 0.354108
vt 0.918247 0.323416
vt 0.934152 0.327663
vt 0.941228 0.353098
vt 0.923968 0.385727
vt 0.922713 0.354108
vt 0.941228 0.353098
vt 0.942959 0.386063
vt 0.904118 0.331889
vt 0.888829 0.335576
vt 0.888269 0.317302
vt 0.909598 0.315703
vt 0.888829 0.335576
vt 0.869557 0.335267
vt 0.862990 0.320569
vt 0.888269 0.317302
vt 0.888269 0.317302
vt 0.862990 0.320569
vt 0.865608 0.304794
vt 0.884747 0.297680
vt 0.909598 0.315703
vt 0.888269 0.317302
vt 0.884747 0.297680
vt 0.901593 0.300668
vt 0.869557 0.335267
vt 0.869685 0.359035
vt 0.852607 0.358336
vt 0.854834 0.328088
vt 0.869685 0.359035
vt 0.869268 0.388552
vt 0.851472 0.388325
vt 0.852607 0.358336
vt 0.852607 0.358336
vt 0.851472 0.388325
vt 0.833396 0.387596
vt 0.835150 0.356947
vt 0.854834 0.328088
vt 0.852607 0.358336
vt 0.835150 0.356947
vt 0.839113 0.332701
vt 0.869268 0.388552
vt 0.869957 0.418977
vt 0.851146 0.418954
vt 0.851472 0.388325
vt 0.869957 0.418977
vt 0.871226 0.451445
vt 0.851293 0.451635
vt 0.851146 0.418954
vt 0.851146 0.418954
vt 0.851293 0.451635
vt 0.831341 0.451576
vt 0.832163 0.418768
vt 0.851472 0.388325
vt 0.851146 0.418954
vt 0.832163 0.418768
vt 0.833396 0.387596
vt 0.871226 0.451445
vt 0.872764 0.487271
vt 0.851512 0.487619
vt 0.851293 0.451635
vt 0.872764 0.487271
vt 0.872893 0.525320
vt 0.850921 0.525590
vt 0.851512 0.487619
vt 0.851512 0.487619
vt 0.850921 0.525590
vt 0.829510 0.523762
vt 0.830530 0.487026
vt 0.851293 0.451635
vt 0.851512 0.487619
vt 0.830530 0.487026
vt 0.831341 0.451576
vt 0.872893 0.525320
vt 0.871903 0.564760
vt 0.848789 0.565216
vt 0.850921 0.525590
vt 0.871903 0.564760
vt 0.865704 0.603195
vt 0.845379 0.605286
vt 0.848789 0.565216
vt 0.848789 0.565216
vt 0.845379 0.605286
vt 0.825909 0.599392
vt 0.826392 0.561463
vt 0.850921 0.525590
vt 0.848789 0.565216
vt 0.826392 0.561463
vt 0.829510 0.523762
vt 0.917382 0.590727
vt 0.891019 0.595572
vt 0.888774 0.560667
vt 0.909355 0.557212
vt 0.891019 0.595572
vt 0.865704 0.603195
vt 0.871903 0.564760
vt 0.888774 0.560667
vt 0.888774 0.560667
vt 0.871903 0.564760
vt 0.872893 0.525320
vt 0.888665 0.523288
vt 0.909355 0.557212
vt 0.888774 0.560667
vt 0.888665 0.523288
vt 0.904209 0.521162
vt 0.904209 0.521162
vt 0.888665 0.523288
vt 0.888022 0.486113
vt 0.902992 0.484663
vt 0.888665 0.523288
vt 0.872893 0.525320
vt 0.872764 0.487271
vt 0.888022 0.486113
vt 0.888022 0.486113
vt 0.872764 0.487271
vt 0.871226 0.451445
vt 0.887722 0.450984
vt 0.902992 0.484663
vt 0.888022 0.486113
vt 0.887722 0.450984
vt 0.904018 0.450041
vt 0.904018 0.450041
vt 0.887722 0.450984
vt 0.887367 0.418673
vt 0.904863 0.417807
vt 0.887722 0.450984
vt 0.871226 0.451445
vt 0.869957 0.418977
vt 0.887367 0.418673
vt 0.887367 0.418673
vt 0.869957 0.418977
vt 0.869268 0.388552
vt 0.887219 0.387948
vt 0.904863 0.417807
vt 0.887367 0.418673
vt 0.887219 0.387948
vt 0.905432 0.386535
vt 0.905432 0.386535
vt 0.887219 0.387948
vt 0.887742 0.358300
vt 0.905602 0.356184
vt 0.887219 0.387948
vt 0.869268 0.388552
vt 0.869685 0.359035
vt 0.887742 0.358300
vt 0.887742 0.358300
vt 0.869685 0.359035
vt 0.869557 0.335267
vt 0.888829 0.335576
vt 0.905602 0.356184
vt 0.887742 0.358300
vt 0.888829 0.335576
vt 0.904118 0.331889
vn -0.234619 0.024700 -0.971774
vn -0.282772 0.020297 -0.958973
vn 0.024265 0.032218 -0.999186
vn 0.000468 0.029771 -0.999557
vn -0.282772 0.020297 -0.958973
vn -0.390221 -0.006602 -0.920698
vn -0.390221 -0.006602 -0.920698
vn 0.024265 0.032218 -0.999186
vn 0.024265 0.032218 -0.999186
vn 0.434979 0.038928 -0.899599
vn 0.434979 0.038928 -0.899599
vn 0.330084 0.041072 -0.943058
vn 0.000468 0.029771 -0.999557
vn 0.024265 0.032218 -0.999186
vn 0.330084 0.041072 -0.943058
vn 0.235530 0.033174 -0.971301
vn -0.390221 -0.006602 -0.920698
vn -0.448820 -0.037995 -0.892814
vn -0.448820 -0.037995 -0.892814
vn -0.390221 -0.006602 -0.920698
vn -0.448820 -0.037995 -0.892814
vn -0.418201 -0.037522 -0.907579
vn -0.418201 -0.037522 -0.907579
vn -0.448820 -0.037995 -0.892814
vn 0.448553 0.021344 -0.893501
vn 0.417789 0.008073 -0.908508
vn 0.417789 0.008073 -0.908508
vn 0.448553 0.021344 -0.893501
vn 0.434979 0.038928 -0.899599
vn 0.448553 0.021344 -0.893501
vn 0.448553 0.021344 -0.893501
vn 0.434979 0.038928 -0.899599
vn -0.418201 -0.037522 -0.907579
vn -0.365751 -0.028418 -0.930279
vn -0.365751 -0.028418 -0.930279
vn -0.418201 -0.037522 -0.907579
vn -0.365751 -0.028418 -0.930279
vn -0.329311 -0.035718 -0.943546
vn -0.120632 -0.015814 -0.992571
vn -0.365751 -0.028418 -0.930279
vn 0.365568 0.005798 -0.930767
vn 0.120576 -0.002632 -0.992701
vn 0.329251 0.017557 -0.944079
vn 0.365568 0.005798 -0.930767
vn 0.417789 0.008073 -0.908508
vn 0.365568 0.005798 -0.930767
vn 0.365568 0.005798 -0.930767
vn 0.417789 0.008073 -0.908508
vn -0.329311 -0.035718 -0.943546
vn -0.299503 0.074196 -0.951206
vn 0.000629 0.113452 -0.993543
vn -0.000034 -0.009621 -0.999954
vn -0.299503 0.074196 -0.951206
vn -0.280973 0.189992 -0.940722
vn 0.001254 0.232606 -0.972570
vn 0.000629 0.113452 -0.993543
vn 0.000629 0.113452 -0.993543
vn 0.001254 0.232606 -0.972570
vn 0.283377 0.256034 -0.924199
vn 0.300668 0.142107 -0.943083
vn -0.000034 -0.009621 -0.999954
vn 0.000629 0.113452 -0.993543
vn 0.300668 0.142107 -0.943083
vn 0.329251 0.017557 -0.944079
vn -0.904294 0.095190 0.416162
vn -0.930257 0.070591 0.360054
vn -0.930257 0.070591 0.360054
vn -0.904294 0.095190 0.416162
vn -0.930257 0.070591 0.360054
vn -0.965658 -0.008710 0.259670
vn -0.999991 0.004367 0.000164
vn -0.985675 0.083610 0.146471
vn -0.983414 0.109069 -0.144919
vn -0.999991 0.004367 0.000164
vn -0.965509 0.017166 -0.259805
vn -0.924235 0.132539 -0.358083
vn -0.895381 0.167362 -0.412653
vn -0.924235 0.132539 -0.358083
vn -0.924235 0.132539 -0.358083
vn -0.895381 0.167362 -0.412653
vn -0.965658 -0.008710 0.259670
vn -0.973119 -0.082333 0.215085
vn -0.995904 -0.090417 0.000199
vn -0.999991 0.004367 0.000164
vn -0.973119 -0.082333 0.215085
vn -0.968208 -0.085765 0.234984
vn -0.995008 -0.099798 0.000337
vn -0.995904 -0.090417 0.000199
vn -0.995904 -0.090417 0.000199
vn -0.995008 -0.099798 0.000337
vn -0.966111 -0.108245 -0.234334
vn -0.972106 -0.094274 -0.214764
vn -0.999991 0.004367 0.000164
vn -0.995904 -0.090417 0.000199
vn -0.972106 -0.094274 -0.214764
vn -0.965509 0.017166 -0.259805
vn -0.968208 -0.085765 0.234984
vn -0.959365 -0.074818 0.272067
vn -0.996128 -0.087918 0.000278
vn -0.995008 -0.099798 0.000337
vn -0.959365 -0.074818 0.272067
vn -0.947556 -0.103750 0.302282
vn -0.993037 -0.117804 0.000342
vn -0.996128 -0.087918 0.000278
vn -0.996128 -0.087918 0.000278
vn -0.993037 -0.117804 0.000342
vn -0.945737 -0.120852 -0.301623
vn -0.957790 -0.094389 -0.271530
vn -0.995008 -0.099798 0.000337
vn -0.996128 -0.087918 0.000278
vn -0.957790 -0.094389 -0.271530
vn -0.966111 -0.108245 -0.234334
vn -0.947556 -0.103750 0.302282
vn -0.943217 -0.005251 0.332137
vn -0.999597 -0.028402 -0.000227
vn -0.993037 -0.117804 0.000342
vn -0.943217 -0.005251 0.332137
vn -0.931798 0.117275 0.343510
vn -0.931798 0.117275 0.343510
vn -0.999597 -0.028402 -0.000227
vn -0.999597 -0.028402 -0.000227
vn -0.937347 0.047626 -0.345127
vn -0.937347 0.047626 -0.345127
vn -0.942190 -0.048257 -0.331586
vn -0.993037 -0.117804 0.000342
vn -0.999597 -0.028402 -0.000227
vn -0.942190 -0.048257 -0.331586
vn -0.945737 -0.120852 -0.301623
vn -0.090696 0.876328 0.473101
vn 0.022806 0.896307 0.442848
vn 0.022806 0.896307 0.442848
vn -0.090696 0.876328 0.473101
vn 0.022806 0.896307 0.442848
vn 0.135983 0.903561 0.406307
vn 0.135983 0.903561 0.406307
vn 0.022806 0.896307 0.442848
vn 0.032835 0.901159 -0.432244
vn 0.099307 0.906817 -0.409660
vn 0.099307 0.906817 -0.409660
vn 0.032835 0.901159 -0.432244
vn -0.033799 0.891031 -0.452683
vn 0.032835 0.901159 -0.432244
vn 0.032835 0.901159 -0.432244
vn -0.033799 0.891031 -0.452683
vn 0.882018 0.198434 0.427398
vn 0.914510 0.114384 0.388056
vn 0.914510 0.114384 0.388056
vn 0.882018 0.198434 0.427398
vn 0.914510 0.114384 0.388056
vn 0.943256 -0.000635 0.332065
vn 0.992504 -0.017538 0.120946
vn 0.914510 0.114384 0.388056
vn 0.922844 0.076744 -0.377452
vn 0.992393 -0.023301 -0.120883
vn 0.943072 -0.018012 -0.332100
vn 0.922844 0.076744 -0.377452
vn 0.902271 0.140306 -0.407703
vn 0.922844 0.076744 -0.377452
vn 0.922844 0.076744 -0.377452
vn 0.902271 0.140306 -0.407703
vn 0.943256 -0.000635 0.332065
vn 0.951615 -0.043031 0.304266
vn 0.998465 -0.055381 0.000124
vn 0.999951 -0.009885 -0.000014
vn 0.951615 -0.043031 0.304266
vn 0.960756 -0.049038 0.273028
vn 0.998048 -0.062452 0.000139
vn 0.998465 -0.055381 0.000124
vn 0.998465 -0.055381 0.000124
vn 0.998048 -0.062452 0.000139
vn 0.959451 -0.071118 -0.272758
vn 0.950610 -0.062478 -0.304034
vn 0.999951 -0.009885 -0.000014
vn 0.998465 -0.055381 0.000124
vn 0.950610 -0.062478 -0.304034
vn 0.943072 -0.018012 -0.332100
vn 0.960756 -0.049038 0.273028
vn 0.971634 0.010855 0.236241
vn 0.999987 0.005152 0.000057
vn 0.998048 -0.062452 0.000139
vn 0.971634 0.010855 0.236241
vn 0.971344 0.102530 0.214425
vn 0.993021 0.117937 0.000600
vn 0.999987 0.005152 0.000057
vn 0.999987 0.005152 0.000057
vn 0.993021 0.117937 0.000600
vn 0.968531 0.127877 -0.213530
vn 0.971680 -0.000846 -0.236298
vn 0.998048 -0.062452 0.000139
vn 0.999987 0.005152 0.000057
vn 0.971680 -0.000846 -0.236298
vn 0.959451 -0.071118 -0.272758
vn 0.971344 0.102530 0.214425
vn 0.922344 0.300582 0.242760
vn 0.941385 0.337320 0.003108
vn 0.993021 0.117937 0.000600
vn 0.922344 0.300582 0.242760
vn 0.851660 0.451902 0.265444
vn 0.867913 0.496692 0.004948
vn 0.941385 0.337320 0.003108
vn 0.941385 0.337320 0.003108
vn 0.867913 0.496692 0.004948
vn 0.823301 0.506649 -0.255896
vn 0.904687 0.354112 -0.236953
vn 0.993021 0.117937 0.000600
vn 0.941385 0.337320 0.003108
vn 0.904687 0.354112 -0.236953
vn 0.968531 0.127877 -0.213530
vn -0.234622 0.024697 0.971773
vn 0.000468 0.029770 0.999557
vn 0.024265 0.032218 0.999186
vn -0.282773 0.020296 0.958972
vn 0.000468 0.029770 0.999557
vn 0.235533 0.033174 0.971300
vn 0.330085 0.041072 0.943057
vn 0.024265 0.032218 0.999186
vn 0.024265 0.032218 0.999186
vn 0.330085 0.041072 0.943057
vn 0.434977 0.038928 0.899600
vn 0.434977 0.038928 0.899600
vn -0.282773 0.020296 0.958972
vn 0.024265 0.032218 0.999186
vn -0.390220 -0.006602 0.920698
vn -0.390220 -0.006602 0.920698
vn -0.390220 -0.006602 0.920698
vn -0.390220 -0.006602 0.920698
vn -0.448819 -0.037995 0.892815
vn -0.448819 -0.037995 0.892815
vn 0.434977 0.038928 0.899600
vn 0.434977 0.038928 0.899600
vn 0.448552 0.021344 0.893502
vn 0.448552 0.021344 0.893502
vn 0.448552 0.021344 0.893502
vn 0.448552 0.021344 0.893502
vn 0.417788 0.008073 0.908509
vn 0.417788 0.008073 0.908509
vn -0.448819 -0.037995 0.892815
vn -0.448819 -0.037995 0.892815
vn -0.418200 -0.037522 0.907580
vn -0.418200 -0.037522 0.907580
vn -0.418200 -0.037522 0.907580
vn -0.418200 -0.037522 0.907580
vn -0.365750 -0.028418 0.930279
vn -0.365750 -0.028418 0.930279
vn 0.417788 0.008073 0.908509
vn 0.417788 0.008073 0.908509
vn 0.365567 0.005798 0.930767
vn 0.365567 0.005798 0.930767
vn 0.365567 0.005798 0.930767
vn 0.365567 0.005798 0.930767
vn 0.329251 0.017557 0.944079
vn 0.120575 -0.002632 0.992701
vn -0.365750 -0.028418 0.930279
vn -0.365750 -0.028418 0.930279
vn -0.120632 -0.015814 0.992571
vn -0.329310 -0.035718 0.943546
vn -0.329310 -0.035718 0.943546
vn -0.000034 -0.009621 0.999954
vn 0.000629 0.113452 0.993543
vn -0.299503 0.074196 0.951206
vn -0.000034 -0.009621 0.999954
vn 0.329251 0.017557 0.944079
vn 0.300667 0.142107 0.943083
vn 0.000629 0.113452 0.993543
vn 0.000629 0.113452 0.993543
vn 0.300667 0.142107 0.943083
vn 0.283376 0.256033 0.924200
vn 0.001254 0.232606 0.972570
vn -0.299503 0.074196 0.951206
vn 0.000629 0.113452 0.993543
vn 0.001254 0.232606 0.972570
vn -0.280972 0.189994 0.940722
s off
g polySurface17 Platform_Big
usemtl Platform_BigSG1
f 2/1/1 22/2/2 26/3/3 25/4/4
f 22/5/5 3/6/6 23/7/7 26/8/8
f 26/9/9 23/10/10 10/11/11 24/12/12
f 25/13/13 26/14/14 24/15/15 11/16/16
f 3/17/17 27/18/18 30/19/19 23/20/20
f 27/21/21 4/22/22 28/23/23 30/24/24
f 30/25/25 28/26/26 9/27/27 29/28/28
f 23/29/29 30/30/30 29/31/31 10/32/32
f 4/33/33 31/34/34 34/35/35 28/36/36
f 31/37/37 5/38/38 32/39/39 34/40/40
f 34/41/41 32/42/42 8/43/43 33/44/44
f 28/45/45 34/46/46 33/47/47 9/48/48
f 5/49/49 35/50/50 38/51/51 32/52/52
f 35/53/53 6/54/54 36/55/55 38/56/56
f 38/57/57 36/58/58 7/59/59 37/60/60
f 32/61/61 38/62/62 37/63/63 8/64/64
f 12/65/65 39/66/66 42/67/67 41/68/68
f 39/69/69 13/70/70 40/71/71 42/72/72
f 42/73/73 40/74/74 3/75/75 22/76/76
f 41/77/77 42/78/78 22/79/79 2/80/80
f 13/81/81 43/82/82 45/83/83 40/84/84
f 43/85/85 14/86/86 44/87/87 45/88/88
f 45/89/89 44/90/90 4/91/91 27/92/92
f 40/93/93 45/94/94 27/95/95 3/96/96
f 14/97/97 46/98/98 48/99/99 44/100/100
f 46/101/101 15/102/102 47/103/103 48/104/104
f 48/105/105 47/106/106 5/107/107 31/108/108
f 44/109/109 48/110/110 31/111/111 4/112/112
f 15/113/113 49/114/114 51/115/115 47/116/116
f 49/117/117 16/118/118 50/119/119 51/120/120
f 51/121/121 50/122/122 6/123/123 35/124/124
f 47/125/125 51/126/126 35/127/127 5/128/128
f 16/129/129 52/130/130 54/131/131 50/132/132
f 52/133/133 17/134/134 53/135/135 54/136/136
f 54/137/137 53/138/138 7/139/139 36/140/140
f 50/141/141 54/142/142 36/143/143 6/144/144
f 17/145/145 55/146/146 57/147/147 53/148/148
f 55/149/149 18/150/150 56/151/151 57/152/152
f 57/153/153 56/154/154 8/155/155 37/156/156
f 53/157/157 57/158/158 37/159/159 7/160/160
f 18/161/161 58/162/162 60/163/163 56/164/164
f 58/165/165 19/166/166 59/167/167 60/168/168
f 60/169/169 59/170/170 9/171/171 33/172/172
f 56/173/173 60/174/174 33/175/175 8/176/176
f 19/177/177 61/178/178 63/179/179 59/180/180
f 61/181/181 20/182/182 62/183/183 63/184/184
f 63/185/185 62/186/186 10/187/187 29/188/188
f 59/189/189 63/190/190 29/191/191 9/192/192
f 20/193/193 64/194/194 66/195/195 62/196/196
f 64/197/197 21/198/198 65/199/199 66/200/200
f 66/201/201 65/202/202 11/203/203 24/204/204
f 62/205/205 66/206/206 24/207/207 10/208/208
f 12/209/209 67/210/210 69/211/211 39/212/212
f 67/213/213 21/214/214 64/215/215 69/216/216
f 69/217/217 64/218/218 20/219/219 68/220/220
f 39/221/221 69/222/222 68/223/223 13/224/224
f 13/225/225 68/226/226 71/227/227 43/228/228
f 68/229/229 20/230/230 61/231/231 71/232/232
f 71/233/233 61/234/234 19/235/235 70/236/236
f 43/237/237 71/238/238 70/239/239 14/240/240
f 14/241/241 70/242/242 73/243/243 46/244/244
f 70/245/245 19/246/246 58/247/247 73/248/248
f 73/249/249 58/250/250 18/251/251 72/252/252
f 46/253/253 73/254/254 72/255/255 15/256/256
f 15/257/257 72/258/258 74/259/259 49/260/260
f 72/261/261 18/262/262 55/263/263 74/264/264
f 74/265/265 55/266/266 17/267/267 52/268/268
f 49/269/269 74/270/270 52/271/271 16/272/272
