# This file uses centimeters as units for non-parametric coordinates.

mtllib Floor_Stalag_1.mtl
g default
v 3.248108 0.265125 -5.786011
v 4.131500 1.580673 -5.786011
v 4.130005 2.620850 -5.667175
v 4.686340 2.658112 -5.667175
v 4.801147 1.590927 -5.786011
v 5.174194 0.250223 -5.786011
v 3.248108 0.265125 -4.869507
v 4.131500 1.580673 -4.869507
v 4.130005 2.620850 -4.988312
v 4.686340 2.658112 -4.988312
v 4.801147 1.590927 -4.869507
v 5.174194 0.250223 -4.869507
v 3.935455 0.916153 -5.786011
v 4.391815 1.578354 -5.938721
v 4.963684 0.932915 -5.786011
v 4.263275 0.250223 -5.938721
v 4.337799 0.924530 -5.938721
v 4.164551 2.212616 -5.786011
v 4.399261 2.635437 -5.786011
v 4.734558 2.199570 -5.786011
v 4.404846 2.191193 -5.938721
v 3.935455 0.916153 -4.869507
v 3.995056 1.576492 -5.327759
v 2.944489 0.265125 -5.327759
v 3.726837 0.913353 -5.327759
v 4.164551 2.212616 -4.869507
v 4.062103 2.677368 -5.327759
v 4.054657 2.209824 -5.327759
v 4.734558 2.199570 -4.869507
v 4.937592 1.595123 -5.327759
v 4.751312 2.712769 -5.327759
v 4.844452 2.202362 -5.327759
v 4.963684 0.932915 -4.869507
v 5.477783 0.250223 -5.327759
v 5.172302 0.935707 -5.327759
v 4.263275 0.250223 -4.716766
v 4.391815 1.578354 -4.716766
v 4.337799 0.924530 -4.716766
v 4.399261 2.635437 -4.869507
v 4.404846 2.191193 -4.716766
v 4.397400 2.783539 -5.327759
vt 0.779617 0.652641
vt 0.760100 0.690132
vt 0.742064 0.696311
vt 0.735984 0.666582
vt 0.760100 0.690132
vt 0.761157 0.720460
vt 0.748730 0.724245
vt 0.742064 0.696311
vt 0.742064 0.696311
vt 0.748730 0.724245
vt 0.731027 0.731255
vt 0.715069 0.705972
vt 0.735984 0.666582
vt 0.742064 0.696311
vt 0.715069 0.705972
vt 0.697250 0.680126
vt 0.761157 0.720460
vt 0.767710 0.746342
vt 0.756297 0.748043
vt 0.748730 0.724245
vt 0.767710 0.746342
vt 0.773890 0.763610
vt 0.761472 0.766228
vt 0.756297 0.748043
vt 0.756297 0.748043
vt 0.761472 0.766228
vt 0.749364 0.771680
vt 0.743142 0.753464
vt 0.748730 0.724245
vt 0.756297 0.748043
vt 0.743142 0.753464
vt 0.731027 0.731255
vt 0.609365 0.764836
vt 0.648352 0.767695
vt 0.638833 0.788004
vt 0.598388 0.782492
vt 0.648352 0.767695
vt 0.676926 0.779038
vt 0.667827 0.796829
vt 0.638833 0.788004
vt 0.638833 0.788004
vt 0.667827 0.796829
vt 0.662966 0.814517
vt 0.639121 0.807895
vt 0.598388 0.782492
vt 0.638833 0.788004
vt 0.639121 0.807895
vt 0.604580 0.802202
vt 0.676926 0.779038
vt 0.698490 0.791397
vt 0.690708 0.806980
vt 0.667827 0.796829
vt 0.698490 0.791397
vt 0.710472 0.801635
vt 0.706760 0.814123
vt 0.690708 0.806980
vt 0.690708 0.806980
vt 0.706760 0.814123
vt 0.699773 0.824981
vt 0.684209 0.823194
vt 0.667827 0.796829
vt 0.690708 0.806980
vt 0.684209 0.823194
vt 0.662966 0.814517
vt 0.724728 0.786466
vt 0.712148 0.773553
vt 0.726909 0.762920
vt 0.737918 0.780770
vt 0.712148 0.773553
vt 0.696715 0.754900
vt 0.712742 0.741685
vt 0.726909 0.762920
vt 0.726909 0.762920
vt 0.712742 0.741685
vt 0.731027 0.731255
vt 0.743142 0.753464
vt 0.737918 0.780770
vt 0.726909 0.762920
vt 0.743142 0.753464
vt 0.749364 0.771680
vt 0.696715 0.754900
vt 0.679000 0.731722
vt 0.695093 0.716327
vt 0.712742 0.741685
vt 0.679000 0.731722
vt 0.661226 0.707528
vt 0.676066 0.690136
vt 0.695093 0.716327
vt 0.695093 0.716327
vt 0.676066 0.690136
vt 0.697250 0.680126
vt 0.715069 0.705972
vt 0.712742 0.741685
vt 0.695093 0.716327
vt 0.715069 0.705972
vt 0.731027 0.731255
vt 0.609365 0.764836
vt 0.638495 0.737384
vt 0.661292 0.753159
vt 0.648352 0.767695
vt 0.638495 0.737384
vt 0.661226 0.707528
vt 0.679000 0.731722
vt 0.661292 0.753159
vt 0.661292 0.753159
vt 0.679000 0.731722
vt 0.696715 0.754900
vt 0.684408 0.768706
vt 0.648352 0.767695
vt 0.661292 0.753159
vt 0.684408 0.768706
vt 0.676926 0.779038
vt 0.676926 0.779038
vt 0.684408 0.768706
vt 0.703027 0.782712
vt 0.698490 0.791397
vt 0.684408 0.768706
vt 0.696715 0.754900
vt 0.712148 0.773553
vt 0.703027 0.782712
vt 0.703027 0.782712
vt 0.712148 0.773553
vt 0.724728 0.786466
vt 0.715224 0.792430
vt 0.698490 0.791397
vt 0.703027 0.782712
vt 0.715224 0.792430
vt 0.710472 0.801635
vt 0.724728 0.786466
vt 0.736041 0.793545
vt 0.727142 0.803119
vt 0.715224 0.792430
vt 0.736041 0.793545
vt 0.743776 0.804309
vt 0.739482 0.815252
vt 0.727142 0.803119
vt 0.727142 0.803119
vt 0.739482 0.815252
vt 0.729341 0.819524
vt 0.718419 0.812372
vt 0.715224 0.792430
vt 0.727142 0.803119
vt 0.718419 0.812372
vt 0.710472 0.801635
vn -0.144837 0.152921 -0.977567
vn -0.251392 0.129601 -0.959169
vn -0.025073 0.056761 -0.998073
vn 0.010422 0.068408 -0.997603
vn -0.251392 0.129601 -0.959169
vn -0.432101 0.065853 -0.899418
vn -0.219921 0.039359 -0.974723
vn -0.025073 0.056761 -0.998073
vn -0.025073 0.056761 -0.998073
vn 0.081548 0.027268 -0.996296
vn 0.294059 -0.013547 -0.955691
vn 0.201457 -0.018951 -0.979314
vn 0.010422 0.068408 -0.997603
vn -0.025073 0.056761 -0.998073
vn 0.201457 -0.018951 -0.979314
vn 0.165350 -0.018271 -0.986066
vn -0.609712 0.169512 -0.774285
vn -0.511299 0.113432 -0.851884
vn -0.511299 0.113432 -0.851884
vn -0.432101 0.065853 -0.899418
vn -0.511299 0.113432 -0.851884
vn -0.512936 0.199530 -0.834916
vn -0.512936 0.199530 -0.834916
vn -0.511299 0.113432 -0.851884
vn 0.376900 0.149845 -0.914053
vn 0.394208 0.303237 -0.867552
vn 0.394208 0.303237 -0.867552
vn 0.376900 0.149845 -0.914053
vn 0.294059 -0.013547 -0.955691
vn 0.376900 0.149845 -0.914053
vn 0.376900 0.149845 -0.914053
vn 0.294059 -0.013547 -0.955691
vn -0.625765 0.660680 0.414633
vn -0.774817 0.473632 0.418725
vn -0.774817 0.473632 0.418725
vn -0.625765 0.660680 0.414633
vn -0.774817 0.473632 0.418725
vn -0.828750 0.118880 0.546847
vn -0.925749 0.156019 0.344451
vn -0.774817 0.473632 0.418725
vn -0.740295 0.541452 -0.398490
vn -0.914679 0.220192 -0.338938
vn -0.822511 0.164154 -0.544545
vn -0.740295 0.541452 -0.398490
vn -0.587662 0.709248 -0.389385
vn -0.740295 0.541452 -0.398490
vn -0.740295 0.541452 -0.398490
vn -0.587662 0.709248 -0.389385
vn -0.925749 0.156019 0.344451
vn -0.965667 0.017842 0.259170
vn -0.999332 0.036537 0.000339
vn -0.980109 0.140236 0.140431
vn -0.965667 0.017842 0.259170
vn -0.972302 -0.014435 0.233282
vn -1.000000 0.000545 0.000091
vn -0.999332 0.036537 0.000339
vn -0.999332 0.036537 0.000339
vn -1.000000 0.000545 0.000091
vn -0.972328 0.015495 -0.233106
vn -0.964555 0.052733 -0.258560
vn -0.975775 0.171289 -0.136103
vn -0.999332 0.036537 0.000339
vn -0.964555 0.052733 -0.258560
vn -0.914679 0.220192 -0.338938
vn 0.965216 0.155891 0.209898
vn 0.966384 0.130886 0.221296
vn 0.988697 0.149930 -0.000359
vn 0.985532 0.169487 -0.001228
vn 0.966384 0.130886 0.221296
vn 0.951709 0.168399 0.256695
vn 0.977859 0.209256 0.002030
vn 0.988697 0.149930 -0.000359
vn 0.988697 0.149930 -0.000359
vn 0.977859 0.209256 0.002030
vn 0.938136 0.236090 -0.253303
vn 0.961596 0.161478 -0.221943
vn 0.985532 0.169487 -0.001228
vn 0.988697 0.149930 -0.000359
vn 0.961596 0.161478 -0.221943
vn 0.961330 0.175426 -0.212298
vn 0.951709 0.168399 0.256695
vn 0.906083 0.250713 0.340816
vn 0.947279 0.287176 0.142102
vn 0.977859 0.209256 0.002030
vn 0.906083 0.250713 0.340816
vn 0.875691 0.269995 0.400334
vn 0.875691 0.269995 0.400334
vn 0.947279 0.287176 0.142102
vn 0.876656 0.349924 -0.330193
vn 0.842639 0.375524 -0.385929
vn 0.842639 0.375524 -0.385929
vn 0.876656 0.349924 -0.330193
vn 0.977859 0.209256 0.002030
vn 0.947645 0.319277 0.005654
vn 0.876656 0.349924 -0.330193
vn 0.938136 0.236090 -0.253303
vn -0.144838 0.152920 0.977567
vn 0.010422 0.068407 0.997603
vn -0.025073 0.056760 0.998073
vn -0.251392 0.129600 0.959169
vn 0.010422 0.068407 0.997603
vn 0.165352 -0.018271 0.986065
vn 0.201458 -0.018951 0.979314
vn -0.025073 0.056760 0.998073
vn -0.025073 0.056760 0.998073
vn 0.201458 -0.018951 0.979314
vn 0.294058 -0.013547 0.955692
vn 0.081547 0.027268 0.996296
vn -0.251392 0.129600 0.959169
vn -0.025073 0.056760 0.998073
vn -0.219921 0.039358 0.974723
vn -0.432100 0.065853 0.899418
vn -0.616093 0.138306 0.775436
vn -0.432100 0.065853 0.899418
vn -0.511298 0.113433 0.851885
vn -0.511298 0.113433 0.851885
vn 0.294058 -0.013547 0.955692
vn 0.294058 -0.013547 0.955692
vn 0.376899 0.149844 0.914053
vn 0.376899 0.149844 0.914053
vn 0.376899 0.149844 0.914053
vn 0.376899 0.149844 0.914053
vn 0.394208 0.303236 0.867553
vn 0.394208 0.303236 0.867553
vn -0.511298 0.113433 0.851885
vn -0.511298 0.113433 0.851885
vn -0.512934 0.199533 0.834916
vn -0.512934 0.199533 0.834916
vn -0.013222 0.987598 0.156448
vn 0.091526 0.995639 -0.018036
vn -0.077083 0.996998 -0.007330
vn -0.099436 0.967803 0.231236
vn 0.091526 0.995639 -0.018036
vn 0.192477 0.962381 -0.191772
vn -0.049505 0.966603 -0.251450
vn -0.077083 0.996998 -0.007330
vn -0.077083 0.996998 -0.007330
vn -0.049505 0.966603 -0.251450
vn -0.288410 0.910767 -0.295505
vn -0.248101 0.968726 0.003892
vn -0.099436 0.967803 0.231236
vn -0.077083 0.996998 -0.007330
vn -0.248101 0.968726 0.003892
vn -0.184316 0.935022 0.302921
s off
g polySurface19 Platform_Big
usemtl Platform_BigSG1
f 1/1/1 13/2/2 17/3/3 16/4/4
f 13/5/5 2/6/6 14/7/7 17/8/8
f 17/9/9 14/10/10 5/11/11 15/12/12
f 16/13/13 17/14/14 15/15/15 6/16/16
f 2/17/17 18/18/18 21/19/19 14/20/20
f 18/21/21 3/22/22 19/23/23 21/24/24
f 21/25/25 19/26/26 4/27/27 20/28/28
f 14/29/29 21/30/30 20/31/31 5/32/32
f 7/33/33 22/34/34 25/35/35 24/36/36
f 22/37/37 8/38/38 23/39/39 25/40/40
f 25/41/41 23/42/42 2/43/43 13/44/44
f 24/45/45 25/46/46 13/47/47 1/48/48
f 8/49/49 26/50/50 28/51/51 23/52/52
f 26/53/53 9/54/54 27/55/55 28/56/56
f 28/57/57 27/58/58 3/59/59 18/60/60
f 23/61/61 28/62/62 18/63/63 2/64/64
f 10/65/65 29/66/66 32/67/67 31/68/68
f 29/69/69 11/70/70 30/71/71 32/72/72
f 32/73/73 30/74/74 5/75/75 20/76/76
f 31/77/77 32/78/78 20/79/79 4/80/80
f 11/81/81 33/82/82 35/83/83 30/84/84
f 33/85/85 12/86/86 34/87/87 35/88/88
f 35/89/89 34/90/90 6/91/91 15/92/92
f 30/93/93 35/94/94 15/95/95 5/96/96
f 7/97/97 36/98/98 38/99/99 22/100/100
f 36/101/101 12/102/102 33/103/103 38/104/104
f 38/105/105 33/106/106 11/107/107 37/108/108
f 22/109/109 38/110/110 37/111/111 8/112/112
f 8/113/113 37/114/114 40/115/115 26/116/116
f 37/117/117 11/118/118 29/119/119 40/120/120
f 40/121/121 29/122/122 10/123/123 39/124/124
f 26/125/125 40/126/126 39/127/127 9/128/128
f 10/129/129 31/130/130 41/131/131 39/132/132
f 31/133/133 4/134/134 19/135/135 41/136/136
f 41/137/137 19/138/138 3/139/139 27/140/140
f 39/141/141 41/142/142 27/143/143 9/144/144
