# This file uses centimeters as units for non-parametric coordinates.

mtllib Stalag_Seperate_4.mtl
g default
v 16.426758 -5.150696 10.788940
v 15.616089 -5.131592 13.560425
v 13.245972 -2.134323 10.892212
v 13.627197 -2.641174 12.801880
v 15.617554 -5.148712 10.199951
v 13.892822 -2.427139 10.337646
v 12.140991 -2.875183 11.442993
v 12.368164 -5.137512 12.746704
v 13.165405 -2.390381 12.926758
v 14.909058 -1.541153 13.016968
v 14.096558 -1.997421 12.811768
v 15.982178 -5.125000 13.687622
v 15.880127 -2.258011 11.383545
v 12.808960 -3.635773 10.209106
v 12.500244 -5.099335 10.089294
v 13.708862 -3.266724 10.217285
v 15.141602 -2.543808 10.751221
v 13.591187 -5.146606 9.882385
v 15.105469 -1.457489 11.977539
v 14.473511 -1.873077 11.148193
v 11.920532 -5.084442 10.506714
v 11.288696 -5.061676 10.734619
v 11.715698 -3.962372 10.727173
v 12.253906 -3.782623 10.848999
v 11.462402 -5.107178 12.491943
v 11.958984 -3.711731 12.157715
v 14.494751 -0.866646 12.298096
v 12.827759 -2.341125 11.208862
v 13.568848 -1.487061 12.055542
v 12.400635 -3.950989 12.672974
v 13.468994 -3.931610 13.563965
v 13.039795 -3.602386 13.180176
v 12.610229 -2.132904 12.500366
v 15.352051 -3.485199 13.099976
v 14.395142 -5.153748 13.994995
v 14.545288 -2.400162 12.951904
v 14.380981 -3.840820 13.802856
v 14.908325 -3.504456 13.360107
v 13.485840 -5.172668 13.581787
v 15.436279 -2.095078 12.941528
v 16.174316 -2.869507 12.656982
v 15.772827 -2.668793 13.347900
v 16.577759 -5.112610 12.341675
vt 0.682354 0.131709
vt 0.683111 0.190057
vt 0.634174 0.134588
vt 0.683111 0.190057
vt 0.650414 0.214511
vt 0.634174 0.134588
vt 0.634174 0.134588
vt 0.650414 0.214511
vt 0.633398 0.224429
vt 0.614932 0.135703
vt 0.682354 0.131709
vt 0.708377 0.131587
vt 0.703807 0.177329
vt 0.683111 0.190057
vt 0.682354 0.131709
vt 0.703807 0.177329
vt 0.683111 0.190057
vt 0.703807 0.177329
vt 0.696256 0.224429
vt 0.696256 0.224429
vt 0.680325 0.216308
vt 0.683111 0.190057
vt 0.650414 0.214511
vt 0.683111 0.190057
vt 0.680325 0.216308
vt 0.685244 0.711711
vt 0.655863 0.743681
vt 0.651621 0.723641
vt 0.655863 0.743681
vt 0.685244 0.711711
vt 0.716440 0.726659
vt 0.651621 0.723641
vt 0.650958 0.692952
vt 0.685244 0.711711
vt 0.681771 0.688484
vt 0.685244 0.711711
vt 0.650958 0.692952
vt 0.717365 0.699382
vt 0.685244 0.711711
vt 0.681771 0.688484
vt 0.685244 0.711711
vt 0.717365 0.699382
vt 0.716440 0.726659
vt 0.742454 0.715324
vt 0.751695 0.717522
vt 0.752874 0.739727
vt 0.737533 0.743345
vt 0.325412 0.038904
vt 0.289823 0.038904
vt 0.280433 0.027650
vt 0.321263 0.023510
vt 0.289823 0.038904
vt 0.254604 0.038830
vt 0.280433 0.027650
vt 0.233660 0.027313
vt 0.280433 0.027650
vt 0.254604 0.038830
vt 0.737533 0.743345
vt 0.716900 0.743115
vt 0.716440 0.726659
vt 0.742454 0.715324
vt 0.864110 0.495537
vt 0.864110 0.455545
vt 0.909096 0.464812
vt 0.960600 0.458917
vt 0.935632 0.482060
vt 0.909096 0.464812
vt 0.899764 0.497024
vt 0.909096 0.464812
vt 0.935632 0.482060
vt 0.909096 0.464812
vt 0.899764 0.497024
vt 0.864110 0.495537
vt 0.716900 0.743115
vt 0.680639 0.753564
vt 0.655863 0.743681
vt 0.716440 0.726659
vt 0.688766 0.783377
vt 0.680639 0.753564
vt 0.716900 0.743115
vt 0.724853 0.762092
vt 0.688766 0.783377
vt 0.716900 0.743115
vt 0.298206 0.832587
vt 0.329182 0.832587
vt 0.329665 0.860132
vt 0.314445 0.865339
vt 0.298206 0.832587
vt 0.329665 0.860132
vt 0.366172 0.861412
vt 0.329665 0.860132
vt 0.329182 0.832587
vt 0.329182 0.832587
vt 0.367404 0.832640
vt 0.366172 0.861412
vt 0.329665 0.860132
vt 0.366172 0.861412
vt 0.351332 0.868714
vt 0.354983 0.896923
vt 0.351332 0.868714
vt 0.370901 0.891465
vt 0.351332 0.868714
vt 0.354983 0.896923
vt 0.335874 0.902464
vt 0.329665 0.860132
vt 0.909096 0.464812
vt 0.901767 0.452816
vt 0.960600 0.458917
vt 0.430304 0.873229
vt 0.398475 0.833785
vt 0.440196 0.835248
vt 0.398475 0.833785
vt 0.430304 0.873229
vt 0.415148 0.872438
vt 0.415148 0.872438
vt 0.397300 0.864227
vt 0.398475 0.833785
vt 0.432452 0.905537
vt 0.402156 0.897769
vt 0.415148 0.872438
vt 0.430304 0.873229
vt 0.397300 0.864227
vt 0.415148 0.872438
vt 0.402156 0.897769
vt 0.351332 0.868714
vt 0.397300 0.864227
vt 0.402156 0.897769
vt 0.402156 0.897769
vt 0.370901 0.891465
vt 0.351332 0.868714
vt 0.366172 0.861412
vt 0.397300 0.864227
vt 0.351332 0.868714
vt 0.367404 0.832640
vt 0.398475 0.833785
vt 0.397300 0.864227
vt 0.397300 0.864227
vt 0.366172 0.861412
vt 0.367404 0.832640
vt 0.414136 0.917975
vt 0.399620 0.933298
vt 0.386606 0.906761
vt 0.386606 0.906761
vt 0.399620 0.933298
vt 0.368299 0.918188
vt 0.688766 0.783377
vt 0.666838 0.785358
vt 0.680639 0.753564
vt 0.666838 0.785358
vt 0.650958 0.765318
vt 0.680639 0.753564
vt 0.354983 0.896923
vt 0.370901 0.891465
vt 0.402156 0.897769
vt 0.386606 0.906761
vt 0.386606 0.906761
vt 0.402156 0.897769
vt 0.432452 0.905537
vt 0.414136 0.917975
vt 0.452707 0.835685
vt 0.444257 0.892491
vt 0.440196 0.835248
vt 0.700017 0.359788
vt 0.665968 0.308713
vt 0.710828 0.309262
vt 0.676959 0.364176
vt 0.665968 0.308713
vt 0.700017 0.359788
vt 0.440196 0.835248
vt 0.444257 0.892491
vt 0.432452 0.905537
vt 0.430304 0.873229
vt 0.762590 0.308713
vt 0.742379 0.373833
vt 0.700017 0.359788
vt 0.710828 0.309262
vt 0.711708 0.405030
vt 0.687836 0.389674
vt 0.690428 0.377196
vt 0.722474 0.391768
vt 0.690428 0.377196
vt 0.676959 0.364176
vt 0.700017 0.359788
vt 0.700017 0.359788
vt 0.722474 0.391768
vt 0.690428 0.377196
vt 0.742379 0.373833
vt 0.722474 0.391768
vt 0.700017 0.359788
vn -0.030881 0.155174 -0.987404
vn 0.094614 0.225893 -0.969547
vn 0.323407 0.229476 -0.918013
vn 0.094614 0.225893 -0.969547
vn 0.357262 0.408870 -0.839756
vn 0.323407 0.229476 -0.918013
vn 0.323407 0.229476 -0.918013
vn 0.357262 0.408870 -0.839756
vn 0.403239 0.585057 -0.703638
vn 0.567347 0.268397 -0.778512
vn -0.030881 0.155174 -0.987404
vn -0.180121 0.117939 -0.976548
vn -0.142238 0.252175 -0.957171
vn -0.018968 0.235872 -0.971599
vn -0.030881 0.155174 -0.987404
vn -0.142238 0.252175 -0.957171
vn -0.018968 0.235872 -0.971599
vn -0.307077 0.312394 -0.898952
vn -0.339893 0.587716 -0.734209
vn -0.513487 0.387069 -0.765839
vn -0.568149 0.237441 -0.787927
vn -0.279147 0.298797 -0.912577
vn 0.357262 0.408870 -0.839756
vn 0.094614 0.225893 -0.969547
vn 0.321716 0.397686 -0.859270
vn 0.194728 0.748088 -0.634386
vn 0.167952 0.740245 -0.651021
vn 0.327962 0.720495 -0.611005
vn -0.092688 0.817592 -0.568289
vn 0.194728 0.748088 -0.634386
vn -0.226778 0.750719 -0.620477
vn 0.327962 0.720495 -0.611005
vn 0.403239 0.585057 -0.703638
vn 0.194728 0.748088 -0.634386
vn 0.357262 0.408870 -0.839756
vn 0.194728 0.748088 -0.634386
vn 0.403239 0.585057 -0.703638
vn 0.196453 0.584898 -0.786957
vn 0.194728 0.748088 -0.634386
vn 0.357262 0.408870 -0.839756
vn 0.194728 0.748088 -0.634386
vn 0.110647 0.781800 -0.613633
vn -0.226778 0.750719 -0.620477
vn -0.750834 0.319706 -0.577960
vn -0.761840 0.210816 -0.612500
vn -0.568797 0.173418 -0.803988
vn -0.617587 0.300841 -0.726692
vn -0.332906 0.122956 -0.934909
vn -0.169944 0.349163 -0.921523
vn -0.508872 0.365799 -0.779256
vn -0.568797 0.173418 -0.803988
vn -0.169944 0.349163 -0.921523
vn -0.290232 0.498537 -0.816839
vn -0.310441 0.376152 -0.873004
vn -0.649808 0.639848 -0.410298
vn -0.508872 0.365799 -0.779256
vn -0.439111 0.615959 -0.654046
vn -0.617587 0.300841 -0.726692
vn -0.649808 0.639848 -0.410298
vn -0.552681 0.505357 -0.662691
vn -0.587766 0.382241 -0.713039
vn -0.928594 0.357981 0.097791
vn -0.816216 0.392098 0.424325
vn -0.885826 0.331418 0.324770
vn -0.824217 0.506081 0.254063
vn -0.877584 0.479099 0.017609
vn -0.885826 0.331418 0.324770
vn -0.938379 0.330297 0.101726
vn -0.885826 0.331418 0.324770
vn -0.877584 0.479099 0.017609
vn -0.885826 0.331418 0.324770
vn -0.938379 0.330297 0.101726
vn -0.928594 0.357981 0.097791
vn -0.649808 0.639848 -0.410298
vn -0.598127 0.762740 -0.245908
vn -0.321587 0.809158 -0.491777
vn -0.379150 0.753677 -0.536857
vn -0.762376 0.639504 -0.099087
vn -0.598127 0.762740 -0.245908
vn -0.649808 0.639848 -0.410298
vn -0.850784 0.491493 -0.186014
vn -0.762376 0.639504 -0.099087
vn -0.649808 0.639848 -0.410298
vn -0.453470 0.233293 0.860197
vn -0.511377 0.045984 0.858125
vn -0.604743 0.160002 0.780183
vn -0.885826 0.331418 0.324770
vn -0.681903 0.304241 0.665166
vn -0.604743 0.160002 0.780183
vn -0.500455 0.147868 0.853042
vn -0.604743 0.160002 0.780183
vn -0.511377 0.045984 0.858125
vn -0.511377 0.045984 0.858125
vn -0.427715 0.047769 0.902650
vn -0.500455 0.147868 0.853042
vn -0.604743 0.160002 0.780183
vn -0.500455 0.147868 0.853042
vn -0.442808 0.384190 0.810136
vn 0.263858 0.005651 0.964545
vn 0.337245 0.159052 0.927884
vn 0.263858 0.005651 0.964545
vn -0.442808 0.384190 0.810136
vn -0.480391 0.502011 0.719173
vn -0.804872 0.246362 0.539895
vn -0.604743 0.160002 0.780183
vn -0.885826 0.331418 0.324770
vn -0.604743 0.160002 0.780183
vn -0.804872 0.246362 0.539895
vn 0.267421 0.203107 0.941931
vn 0.470834 0.202145 0.858751
vn -0.007008 0.214613 0.976674
vn 0.470834 0.202145 0.858751
vn 0.267421 0.203107 0.941931
vn 0.379781 0.219779 0.898590
vn 0.379781 0.219779 0.898590
vn 0.505102 0.281664 0.815805
vn 0.470834 0.202145 0.858751
vn -0.327429 0.090468 0.940535
vn -0.046207 0.257910 0.965063
vn 0.379781 0.219779 0.898590
vn 0.036321 0.195637 0.980003
vn 0.267860 0.410606 0.871581
vn 0.379781 0.219779 0.898590
vn -0.046207 0.257910 0.965063
vn -0.442808 0.384190 0.810136
vn -0.313998 0.315448 0.895487
vn -0.046207 0.257910 0.965063
vn -0.046207 0.257910 0.965063
vn -0.264097 0.488590 0.831584
vn -0.442808 0.384190 0.810136
vn -0.500455 0.147868 0.853042
vn -0.174386 0.355075 0.918429
vn -0.442808 0.384190 0.810136
vn -0.427715 0.047769 0.902650
vn -0.412530 0.127597 0.901963
vn -0.313998 0.315448 0.895487
vn -0.313998 0.315448 0.895487
vn -0.500455 0.147868 0.853042
vn -0.427715 0.047769 0.902650
vn -0.379436 0.278694 0.882246
vn -0.490507 0.497669 0.715353
vn -0.386423 0.462082 0.798222
vn -0.386423 0.462082 0.798222
vn -0.490507 0.497669 0.715353
vn -0.312124 0.660719 0.682663
vn -0.177395 0.723094 0.667583
vn -0.202037 0.725142 0.658293
vn -0.312124 0.660719 0.682663
vn -0.381435 0.588411 0.712938
vn -0.408272 0.582283 0.703037
vn -0.312124 0.660719 0.682663
vn 0.263858 0.005651 0.964545
vn 0.263858 0.005651 0.964545
vn -0.046207 0.257910 0.965063
vn -0.042793 -0.055952 0.997516
vn -0.292267 0.243554 0.924804
vn -0.046207 0.257910 0.965063
vn -0.327429 0.090468 0.940535
vn -0.379436 0.278694 0.882246
vn -0.327967 0.101936 0.939174
vn -0.497558 0.105980 0.860932
vn -0.243445 0.187424 0.951634
vn 0.880125 0.413421 0.233373
vn 0.891768 0.123008 0.435454
vn 0.974362 0.161115 0.157038
vn 0.840211 0.392418 0.374237
vn 0.891768 0.123008 0.435454
vn 0.880125 0.413421 0.233373
vn -0.497558 0.105980 0.860932
vn -0.497558 0.105980 0.860932
vn -0.327429 0.090468 0.940535
vn -0.359342 0.117315 0.925803
vn 0.973771 0.204500 -0.099753
vn 0.899312 0.437011 0.016104
vn 0.880125 0.413421 0.233373
vn 0.974362 0.161115 0.157038
vn 0.732459 0.653459 0.191036
vn 0.732459 0.653459 0.191036
vn 0.741039 0.639175 0.205708
vn 0.745479 0.645881 0.164620
vn 0.741039 0.639175 0.205708
vn 0.840211 0.392418 0.374237
vn 0.880125 0.413421 0.233373
vn 0.880125 0.413421 0.233373
vn 0.745479 0.645881 0.164620
vn 0.741039 0.639175 0.205708
vn 0.899312 0.437011 0.016104
vn 0.745479 0.645881 0.164620
vn 0.880125 0.413421 0.233373
s off
g polySurface2 gnarly_floorStags
usemtl gnarly_floorStagsSG
f 18/1/1 16/2/2 5/3/3
f 16/4/4 17/5/5 5/6/6
f 5/7/7 17/8/8 13/9/9 1/10/10
f 18/11/11 15/12/12 14/13/13
f 16/14/14 18/15/15 14/16/16
f 16/17/17 14/18/18 3/19/19
f 3/20/20 6/21/21 16/22/22
f 17/23/23 16/24/24 6/25/25
f 20/26/26 27/27/27 19/28/28
f 27/29/29 20/30/30 3/31/31
f 19/32/32 13/33/33 20/34/34
f 17/35/35 20/36/36 13/37/37
f 6/38/38 20/39/39 17/40/40
f 20/41/41 6/42/42 3/43/43
f 14/44/44 15/45/45 21/46/46 24/47/47
f 22/48/48 23/49/49 24/50/50 21/51/51
f 23/52/52 7/53/53 24/54/54
f 28/55/55 24/56/56 7/57/57
f 24/58/58 28/59/59 3/60/60 14/61/61
f 22/62/62 25/63/63 26/64/64
f 33/65/65 7/66/66 26/67/67
f 23/68/68 26/69/69 7/70/70
f 26/71/71 23/72/72 22/73/73
f 28/74/74 29/75/75 27/76/76 3/77/77
f 33/78/78 29/79/79 28/80/80
f 7/81/81 33/82/82 28/83/83
f 25/84/84 8/85/85 30/86/86
f 26/87/87 25/88/88 30/89/89
f 31/90/90 30/91/91 8/92/92
f 8/93/93 39/94/94 31/95/95
f 30/96/96 31/97/97 32/98/98
f 9/99/99 32/100/100 4/101/101
f 32/102/102 9/103/103 33/104/104 30/105/105
f 26/106/106 30/107/107 33/108/108
f 34/109/109 35/110/110 2/111/111
f 35/112/112 34/113/113 38/114/114
f 38/115/115 37/116/116 35/117/117
f 40/118/118 36/119/119 38/120/120 34/121/121
f 37/122/122 38/123/123 36/124/124
f 32/125/125 37/126/126 36/127/127
f 36/128/128 4/129/129 32/130/130
f 31/131/131 37/132/132 32/133/133
f 39/134/134 35/135/135 37/136/136
f 37/137/137 31/138/138 39/139/139
f 10/140/140 27/141/141 11/142/142
f 11/143/143 27/144/144 29/145/145
f 33/146/146 9/147/147 29/148/148
f 9/149/149 11/150/150 29/151/151
f 9/152/152 4/153/153 36/154/154 11/155/155
f 11/156/156 36/157/157 40/158/158 10/159/159
f 12/160/160 42/161/161 2/162/162
f 41/163/163 12/164/164 43/165/165
f 42/166/166 12/167/167 41/168/168
f 2/169/169 42/170/170 40/171/171 34/172/172
f 1/173/173 13/174/174 41/175/175 43/176/176
f 27/177/177 10/178/178 40/179/179 19/180/180
f 40/181/181 42/182/182 41/183/183
f 41/184/184 19/185/185 40/186/186
f 13/187/187 19/188/188 41/189/189
